<?xml version="1.0" encoding="utf-8"?>
<!-- Generator: Adobe Illustrator 21.1.0, SVG Export Plug-In . SVG Version: 6.00 Build 0)  -->
<svg version="1.1" id="Layer_1" xmlns="http://www.w3.org/2000/svg" xmlns:xlink="http://www.w3.org/1999/xlink" x="0px" y="0px"
	 viewBox="0 0 1242.7 341.7" style="enable-background:new 0 0 1242.7 341.7;" xml:space="preserve">
<style type="text/css">
	.st0{fill:#9351A0;}
	.st1{fill:#71C7B1;}
	.st2{fill:#6457A5;}
</style>
<g>
	<path class="st0" d="M919.7,246.1c-7.3,0-14.8-0.8-22.4-2.6c-41.2-9.7-83.6-47.3-133.5-118.3C711.4,50.5,665.5,13.7,623.6,12.7
		c-22.5-0.5-44.7,9.4-67.9,30.2c-20.8,18.7-40.6,44.3-59.7,69c-5.1,6.6-10.3,13.4-15.5,20c-15.9,20.1-34.7,43.1-53.9,61.3
		c-19.2,18.2-37.4,30.4-55.8,37.4c-12.6,4.8-25.7,7.2-39.5,7.2c-32.1,0-67.6-13.1-109-39.8c-28.4-18.3-57.7-30.1-87.1-35.2
		c-23.5-4-47.1-3.7-70.2,0.9c-39.3,7.9-63.7,25.8-63.9,26L0,188.1c0.2-0.2,24.9-18.3,64.6-26.3c23.3-4.7,47.2-5,70.9-1
		c29.7,5.1,59.2,17,87.9,35.5c125.6,81,182.7,26.6,255.5-65.6c5.2-6.6,10.4-13.4,15.5-19.9c38.3-49.7,78-101.1,129.2-99.9
		c42.6,1,88.9,38,141.8,113.3C815,194.7,857,232,897.8,241.6c36.6,8.6,69.3-6.2,103.8-21.9c23-10.4,46.7-21.2,74-26.8
		c58-11.9,100.2-12.2,125.4-10.3c27.4,2,40.9,6.9,41.4,7.1l-0.7,1.9c-0.1,0-13.9-4.9-41-6.9c-25.1-1.9-67.1-1.6-124.7,10.3
		c-27.1,5.6-50.8,16.3-73.6,26.7C974.7,234.1,948.2,246.1,919.7,246.1z"/>
	<path class="st1" d="M607.1,341.7c-12.1,0-23.9-2-35.4-6.1c-30.8-10.8-58.9-35.1-91.5-63.2c-17.2-14.8-36.7-31.7-58.6-48.1
		c-36-27.1-80.5-44.7-132.2-52.4c-41.4-6.2-87.6-6-137.2,0.5C67.6,183.5,1.6,209.4,1,209.7l-0.7-1.9c0.7-0.3,66.9-26.3,151.6-37.4
		c49.8-6.5,96.1-6.7,137.8-0.5c52.1,7.7,96.9,25.5,133.2,52.8c21.9,16.5,41.5,33.3,58.7,48.2c32.4,28,60.5,52.1,90.9,62.8
		c33.1,11.6,66.3,6.8,107.9-15.6c39.4-21.2,70.5-64.5,100.5-106.4c39.7-55.3,80.7-112.5,141.9-120.9c47.4-6.6,77.9,24.6,113.1,60.8
		c22.1,22.7,47.2,48.4,79.7,67.4c37.2,21.8,78.7,31.5,126.7,29.9l0.1,2c-48.5,1.7-90.3-8.2-127.8-30.2
		c-32.7-19.1-57.9-44.9-80.1-67.7c-34.9-35.8-65-66.6-111.4-60.2c-60.3,8.3-101.1,65.2-140.5,120.1c-30.2,42.1-61.4,85.5-101.2,107
		C654.1,334.5,629.8,341.7,607.1,341.7z"/>
	<path class="st2" d="M68.3,265.3c-40,0-67.9-19.1-68.3-19.4l1.1-1.6c0.4,0.3,39.1,26.8,90.7,16.7c43.8-8.6,83.7-40.2,118.7-94.1
		C253.1,101.2,292.2,69,330,68.4c21.6-0.3,43.3,9.3,66.3,29.5c19.6,17.1,40.6,42.2,66.2,78.8c32.9,47.1,74.4,69.2,126.8,67.7
		c45.8-1.3,93.9-20.5,136.4-37.5c11.1-4.4,21.7-8.6,32-12.5c35.2-13.1,66.1-20.8,111.2-18.6c42.7,2,98.3,13,185.8,36.7
		c0.3,0.1,32.3,8.5,71.2,12.2c35.8,3.5,85,3.6,115.7-15.4l1.1,1.7c-31.2,19.3-80.9,19.2-117,15.7c-39.1-3.8-71.2-12.2-71.5-12.3
		c-87.4-23.7-142.8-34.6-185.4-36.7c-44.7-2.1-75.4,5.5-110.4,18.5c-10.3,3.8-20.8,8-32,12.5c-42.6,17-90.9,36.2-137.1,37.6
		c-53.2,1.6-95.2-20.9-128.5-68.6c-25.5-36.5-46.4-61.4-65.8-78.5c-22.7-19.9-43.9-29.4-65-29c-37,0.6-75.6,32.6-117.8,97.6
		c-35.3,54.4-75.7,86.4-120,95C83.9,264.6,75.9,265.3,68.3,265.3z"/>
	<circle class="st2" cx="331.6" cy="69.9" r="11.7"/>
	<circle class="st0" cx="623.1" cy="11.7" r="11.7"/>
	<circle class="st1" cx="934.2" cy="91" r="11.7"/>
</g>
</svg>
