<?xml version="1.0" encoding="utf-8"?>
<!-- Generator: Adobe Illustrator 21.1.0, SVG Export Plug-In . SVG Version: 6.00 Build 0)  -->
<svg version="1.1" id="Layer_1" xmlns="http://www.w3.org/2000/svg" xmlns:xlink="http://www.w3.org/1999/xlink" x="0px" y="0px"
	 viewBox="0 0 1241.1 169.6" style="enable-background:new 0 0 1241.1 169.6;" xml:space="preserve">
<style type="text/css">
	.st0{clip-path:url(#SVGID_2_);}
	.st1{clip-path:url(#SVGID_4_);}
	.st2{fill:#2E3033;}
	.st3{fill:#FBAA19;}
	.st4{fill:#FFFFFF;}
</style>
<g>
	<g>
		<defs>
			<rect id="SVGID_1_" width="1241.1" height="65.7"/>
		</defs>
		<clipPath id="SVGID_2_">
			<use xlink:href="#SVGID_1_"  style="overflow:visible;"/>
		</clipPath>
		<g class="st0">
			<defs>
				<rect id="SVGID_3_" width="1245" height="208.7"/>
			</defs>
			<clipPath id="SVGID_4_">
				<use xlink:href="#SVGID_3_"  style="overflow:visible;"/>
			</clipPath>
			<g id="NuxQIZ.tif_3_" class="st1">
				
					<image style="overflow:visible;" width="750" height="1334" id="Layer_0_1_" xlink:href="AD9B44D197662393.png"  transform="matrix(1.66 0 0 1.66 -2.8757 -3.537)">
				</image>
			</g>
		</g>
	</g>
	<rect y="65.7" class="st2" width="1241.1" height="104"/>
	<g>
		<g>
			<path class="st3" d="M134.6,81.9c-0.6,0.1-1.1,0.2-1.7,0.3c-3.4,0.9-5.3,4.1-4.7,7.7c0.5,3.1,2.1,5.5,4.1,7.9
				c3.6,4.3,7.3,8.6,10.6,13c3.4,4.6,6,9.7,7.1,15.5c2.6,13.1-5.6,26.4-18.8,29.6c0.8-0.7,1.6-1.2,2.2-1.7c4.3-3.8,6.7-8.5,6.5-14.2
				c-0.1-2.2-0.6-4.3-2-6.2c-0.3-0.4-0.6-0.9-1.1-1.5c-2,4.8-6.7,7-10.8,5c0.2-0.1,0.4-0.1,0.6-0.2c3.4-2.7,4.3-6.3,4-10.5
				c-0.4-5.4-3.4-9.2-7.4-12.5c-0.1-0.1-0.2-0.1-0.3-0.2c-0.1,0-0.1,0-0.2,0c0.2,1.3,0.4,2.6,0.5,3.9c0.3,3-0.6,5.8-2.4,8.1
				c-1.7,2.2-3.7,4.2-5.6,6.2c-2,2.2-3.9,4.5-4.5,7.4c-1.4,6.2,0.6,11.3,5.1,15.6c0.3,0.3,0.6,0.5,1.1,1c-2.3-0.3-4.3-0.9-6.2-1.9
				c-7-3.9-11.1-9.8-12-17.8c-0.5-4.5,0.7-8.6,3.1-12.4c1.2-1.9,2.5-3.7,3.7-5.6c1.2-1.9,1.9-4,1.2-6.4c-0.8-2.5-2.3-4.2-5-4.7
				c-0.2,0-0.4-0.1-0.7-0.2c1.8-1.6,3.9-2.6,6.1-2.8c2.2-0.1,4.4,0.1,6.7,0.2c-0.1-0.2-0.3-0.5-0.4-0.9c-2.6-6.5-2.4-12.8,1.9-18.5
				c2.8-3.8,6.8-5.6,11.6-5.7C129.5,79.3,132.9,80.5,134.6,81.9z"/>
		</g>
		<g>
			<path class="st4" d="M171.6,147.4v-25.6h-5.1v-8.5h5.1v-7c0-4,1.1-6.9,3.2-8.9c2.2-2,5.4-3,9.7-3c0.6,0,1.3,0.1,2.2,0.2
				c0.8,0.1,1.7,0.3,2.7,0.5v9.2c-0.5-0.2-1-0.4-1.5-0.5c-0.5-0.1-0.9-0.2-1.3-0.2c-1.1,0-1.9,0.3-2.5,1c-0.5,0.7-0.8,1.8-0.8,3.3
				v5.4h6v8.5h-6v25.6H171.6z"/>
			<path class="st4" d="M192.2,147.4V95h12.1v52.3H192.2z"/>
			<path class="st4" d="M210.4,102.6c0-1.8,0.6-3.4,1.9-4.7c1.3-1.3,2.9-1.9,4.7-1.9c1.9,0,3.5,0.6,4.7,1.9c1.3,1.3,1.9,2.8,1.9,4.7
				c0,1.9-0.6,3.5-1.9,4.8c-1.3,1.3-2.9,2-4.7,2c-1.8,0-3.4-0.7-4.7-2C211.1,106,210.4,104.5,210.4,102.6z M211,147.4v-34.1h12.1
				v34.1H211z"/>
			<path class="st4" d="M229.6,147.4v-34.1h11.3v4.3c1.9-3.1,6.2-5.8,15.1-4.1v8.3c-9.2-1.6-14.6,1.9-14.5,10v15.7H229.6z"/>
			<path class="st4" d="M258.7,147.4v-44.3h11.9v10.2h5.1v8.5h-5.1v25.6H258.7z"/>
		</g>
	</g>
	<g>
		<rect x="1084.4" y="95.6" class="st4" width="55.5" height="6"/>
		<rect x="1084.4" y="114.5" class="st4" width="55.5" height="6"/>
		<rect x="1084.4" y="133.7" class="st4" width="55.5" height="6"/>
	</g>
</g>
</svg>
