<?xml version="1.0" encoding="utf-8"?>
<!-- Generator: Adobe Illustrator 21.0.0, SVG Export Plug-In . SVG Version: 6.00 Build 0)  -->
<svg version="1.1" id="Layer_1" xmlns="http://www.w3.org/2000/svg" xmlns:xlink="http://www.w3.org/1999/xlink" x="0px" y="0px"
	 viewBox="0 0 79 110.6" style="enable-background:new 0 0 79 110.6;" xml:space="preserve">
<style type="text/css">
	.st0{fill:#FFFFFF;}
</style>
<path class="st0" d="M75.7,51.9H58.8c0-1-0.8-17.8-17.3-19.2c-0.7-0.1-1.4-0.3-2.1-0.3s-1.4,0.1-2.1,0.3
	C21,34.1,20.2,50.9,20.2,51.9H3.3c-1.8,0-3.3,1.5-3.3,3.3v2.3c0,1.7,1.2,3,2.8,3.3v17.5c0,9.3,3.5,18.1,9.7,24.9
	c-0.3,0.6-0.4,1.1-0.4,1.7v2.3c0,1.8,1.5,3.3,3.3,3.3h48.3c1.8,0,3.3-1.5,3.3-3.3v-2.3c0-0.6-0.1-1.1-0.4-1.7
	c6.2-6.8,9.7-15.6,9.7-24.9V60.9c1.5-0.3,2.8-1.7,2.8-3.3v-2.3C79,53.4,77.5,51.9,75.7,51.9z M56.1,51.9H51c0-0.8-0.1-9.4-3.7-14.9
	C55.5,41,56.1,50.8,56.1,51.9z M38,35.4L38,35.4l0.1,16.4h-7.3c0-0.7,0.1-10.6,4.4-14.9C35.9,36.1,36.9,35.7,38,35.4z M40.9,35.4
	L40.9,35.4c1.2,0.3,2,0.8,2.9,1.7c4.3,4.3,4.4,14.2,4.4,14.9h-7.3V35.4z M31.8,37C28.2,42.5,28,51,28,51.9h-5.1
	C22.9,50.8,23.3,40.8,31.8,37z M63.7,101.6H15.3c-0.3,0-0.4,0-0.6,0c-5.2-5.5-8.3-12.6-9-20.2c4.3,2.1,9.5,1.7,13.5-1.2
	c3.7-2.6,8.7-2.6,12.4,0c4.7,3.3,10.9,3.3,15.6,0c3.7-2.6,8.7-2.6,12.4,0c2.3,1.7,5.1,2.5,7.7,2.5c2.1,0,4.1-0.4,5.9-1.4
	c-0.7,7.6-3.9,14.6-9.1,20.3C64.1,101.6,63.8,101.6,63.7,101.6z M73.5,78c-3.7,2.6-8.6,2.6-12.3,0c-4.7-3.3-10.9-3.3-15.6,0
	c-3.7,2.6-8.7,2.6-12.3,0c-4.7-3.3-10.9-3.3-15.6,0c-3.6,2.6-8.4,2.6-12.2,0.1V60.9h67.9L73.5,78z M64.2,107.3
	c0,0.3-0.3,0.6-0.6,0.6H15.3c-0.3,0-0.6-0.3-0.6-0.6V105c0-0.3,0.3-0.6,0.6-0.6h48.3c0.3,0,0.6,0.3,0.6,0.6V107.3z M76.2,57.5
	c0,0.3-0.3,0.6-0.6,0.6H3.3c-0.3,0-0.6-0.3-0.6-0.6v-2.3c0-0.3,0.3-0.6,0.6-0.6h72.4c0.3,0,0.6,0.3,0.6,0.6v2.3H76.2z"/>
<g>
	<path class="st0" d="M39.2,17.5H27.4V17c0.1-2.8,1.2-5.3,3-7.4l0.4-0.4L39.2,17.5z M28.5,16.5h8.3l-5.9-5.9
		C29.5,12.3,28.7,14.3,28.5,16.5z"/>
	<path class="st0" d="M40,17.5h-1.5l-8-8L30.9,9c2.2-2.3,5.2-3.6,8.3-3.8h0.3c0.1,0,0.2,0,0.2,0h0.1v0.5H40V17.5z M38.9,16.5
		L38.9,16.5L39,6.3c-2.7,0.2-5.2,1.3-7.1,3.2L38.9,16.5z"/>
	<path class="st0" d="M47.5,27.5h-0.3c-0.8,0-1.4-0.6-1.4-1.4v-8.6h-5.1l8.2-8.2l0.4,0.4c1.7,2.1,2.7,4.6,2.9,7.3v0.5H49v8.6
		C48.9,26.8,48.2,27.5,47.5,27.5z M43.1,16.5h3.7v9.6c0,0.2,0.2,0.4,0.4,0.4h0.3c0.2,0,0.4-0.2,0.4-0.4v-9.6h0.5h2.7
		c-0.2-2.1-1-4-2.3-5.7L43.1,16.5z"/>
	<path class="st0" d="M56.6,17.5h-4.3V17c-0.1-3-1.3-5.9-3.4-8c-2.4-2.5-5.7-4-9.2-4c-0.1,0-0.2,0-0.3,0c-3.4,0.1-6.6,1.5-8.9,4
		c-2.1,2.2-3.3,5-3.4,8v0.5h-4.3V17c0.3-9.1,7.7-16.2,16.9-16.2c9.1,0,16.5,7.1,16.9,16.2V17.5z M53.3,16.5h2.3
		C55,8.2,48.2,1.7,39.8,1.7S24.5,8.1,24,16.5h2.3c0.3-3.1,1.5-6,3.7-8.2c2.5-2.7,5.9-4.2,9.6-4.3c0.1,0,0.2,0,0.3,0
		c3.7,0,7.3,1.6,9.9,4.3C51.8,10.5,53.1,13.4,53.3,16.5z"/>
	<path class="st0" d="M41.3,17.5h-1.8V5.2H40c3.2,0.1,6.3,1.4,8.5,3.7l0.6,0.7L48.9,10L41.3,17.5z M40.5,16.5h0.4l6.9-6.9
		c-2-2-4.6-3.2-7.3-3.3C40.5,6.3,40.5,16.5,40.5,16.5z"/>
	<polygon class="st0" points="40.5,17.5 39,17.5 39,5.3 39.9,5.2 40.5,5.2 	"/>
	<path class="st0" d="M42.1,17.5h-2.2l8.6-8.6L49,9.3c0.1,0.1,0.1,0.2,0.2,0.2l0.4,0.5L42.1,17.5z"/>
	<polygon class="st0" points="39.9,17.5 37.7,17.5 30.1,9.9 31.1,8.7 31.5,9.1 	"/>
	<path class="st0" d="M32.8,22.7c-1,0-1.9,0.8-1.9,1.9v4.8c0,1,0.8,1.9,1.9,1.9c1.1,0,1.9-0.8,1.9-1.9v-4.8
		C34.7,23.5,33.8,22.7,32.8,22.7z M33.6,29.4c0,0.4-0.4,0.8-0.8,0.8c-0.4,0-0.8-0.4-0.8-0.8v-4.8c0-0.4,0.4-0.8,0.8-0.8
		s0.8,0.4,0.8,0.8V29.4z"/>
	<path class="st0" d="M57.3,17C57,7.6,49.3,0,39.8,0S22.5,7.6,22.2,17l0,0v0.5c0,0,0,0,0,0.1v0.6l0,0l0,0h14.2h3.2H40h2h3.1v7.9
		c0,1.1,0.9,2.1,2.1,2.1h0.3c1.1,0,2.1-0.9,2.1-2.1v-7.9h7.8L57.3,17L57.3,17z M48.4,17L48.4,17L48.4,17v9.1c0,0.5-0.4,0.9-0.9,0.9
		h-0.3c-0.5,0-0.9-0.4-0.9-0.9v-5.8v-2V17h-4.4h-0.6h-0.1h-0.6H40h-0.3h-0.2h-0.3H39h-0.3h-0.4H38H28c0.1-2.6,1.2-5.1,2.9-7.1
		c0-0.1,0.1-0.1,0.1-0.2c0.1-0.1,0.1-0.1,0.2-0.2l0,0c0-0.1,0.1-0.1,0.1-0.1c2.1-2.2,4.9-3.4,7.9-3.6c0.1,0,0.2,0,0.3,0s0.2,0,0.2,0
		s0,0,0.1,0h0.1H40c3.1,0.1,6,1.4,8.2,3.6c0.1,0.1,0.1,0.1,0.2,0.2l0.1,0.1c0,0,0,0,0.1,0.1s0.2,0.2,0.3,0.3c1.7,2,2.6,4.4,2.7,7
		L48.4,17L48.4,17z M52.8,17c-0.1-3.1-1.4-6.1-3.5-8.4c-2.5-2.6-5.9-4.1-9.5-4.1c-0.1,0-0.2,0-0.3,0c-3.5,0.1-6.8,1.6-9.2,4.1
		c-2.2,2.3-3.4,5.2-3.5,8.4h-3.3C23.8,8.3,31,1.2,39.9,1.2c8.8,0,16,7,16.4,15.8H52.8z"/>
</g>
</svg>
