<?xml version="1.0" encoding="utf-8"?>
<!-- Generator: Adobe Illustrator 21.0.0, SVG Export Plug-In . SVG Version: 6.00 Build 0)  -->
<svg version="1.1" id="Layer_1" xmlns="http://www.w3.org/2000/svg" xmlns:xlink="http://www.w3.org/1999/xlink" x="0px" y="0px"
	 viewBox="0 0 468 95" style="enable-background:new 0 0 468 95;" xml:space="preserve">
<style type="text/css">
	.st0{fill:#FFFFFF;}
</style>
<g>
	<polygon class="st0" points="145.9,48.7 150.9,48.7 148.4,41.8 	"/>
	<polygon class="st0" points="250.1,48.7 255.1,48.7 252.7,41.8 	"/>
	<path class="st0" d="M110.4,41.7c-0.2-0.3-0.5-0.5-0.8-0.6s-0.6-0.2-0.9-0.2h-4.2v5.8h4.3c0.3,0,0.6-0.1,0.9-0.2
		c0.3-0.1,0.5-0.4,0.7-0.6c0.2-0.3,0.4-0.6,0.5-0.9c0.1-0.4,0.2-0.7,0.2-1.1c0-0.4-0.1-0.8-0.2-1.2S110.6,41.9,110.4,41.7z"/>
	<path class="st0" d="M52.7,42.6c-0.4-0.5-1-1-1.6-1.3s-1.4-0.5-2.2-0.5s-1.6,0.2-2.2,0.5s-1.2,0.8-1.6,1.4c-0.4,0.6-0.8,1.2-1,1.9
		s-0.3,1.4-0.3,2.2s0.1,1.5,0.4,2.2c0.2,0.7,0.6,1.4,1,1.9s1,1,1.6,1.3s1.4,0.5,2.2,0.5c0.4,0,0.9-0.1,1.3-0.2
		c0.4-0.1,0.8-0.3,1.1-0.4l-2.7-3h3.2l1.2,1.4c0.3-0.5,0.6-1.1,0.8-1.8c0.2-0.6,0.3-1.3,0.3-1.9c0-0.8-0.1-1.5-0.4-2.2
		C53.5,43.8,53.1,43.1,52.7,42.6z"/>
	<path class="st0" d="M272.2,41.7c-0.2-0.3-0.5-0.5-0.8-0.6s-0.6-0.2-0.9-0.2h-4.2v5.8h4.3c0.3,0,0.6-0.1,0.9-0.2
		c0.3-0.1,0.5-0.4,0.7-0.6c0.2-0.3,0.4-0.6,0.5-0.9c0.1-0.4,0.2-0.7,0.2-1.1c0-0.4-0.1-0.8-0.2-1.2S272.4,41.9,272.2,41.7z"/>
	<path class="st0" d="M129.1,42.6c-0.4-0.5-1-1-1.6-1.3s-1.4-0.5-2.2-0.5c-0.8,0-1.6,0.2-2.2,0.5s-1.2,0.8-1.6,1.3
		c-0.4,0.6-0.8,1.2-1,1.9s-0.3,1.4-0.3,2.2s0.1,1.5,0.4,2.2c0.2,0.7,0.6,1.4,1,1.9s1,1,1.6,1.3s1.4,0.5,2.2,0.5
		c0.8,0,1.6-0.2,2.2-0.5c0.6-0.3,1.2-0.8,1.6-1.4c0.4-0.6,0.8-1.2,1-1.9s0.3-1.4,0.3-2.2s-0.1-1.5-0.4-2.2
		C129.9,43.8,129.6,43.1,129.1,42.6z"/>
	<polygon class="st0" points="403.5,48.7 408.5,48.7 406.1,41.8 	"/>
	<path class="st0" d="M420.5,0h-373C21.4,0,0,21.4,0,47.5l0,0C0,73.6,21.4,95,47.5,95h373c26.1,0,47.5-21.4,47.5-47.5l0,0
		C468,21.4,446.6,0,420.5,0z M54.4,55.6l-1-1.2c-0.6,0.4-1.3,0.7-2.1,0.9s-1.6,0.3-2.4,0.3c-1.3,0-2.5-0.3-3.5-0.8
		c-1.1-0.5-2-1.2-2.7-2c-0.8-0.8-1.3-1.8-1.8-2.9s-0.6-2.2-0.6-3.3c0-1.2,0.2-2.3,0.7-3.4c0.4-1.1,1-2,1.8-2.9
		c0.8-0.8,1.7-1.5,2.8-2s2.2-0.7,3.5-0.7s2.5,0.3,3.5,0.8c1.1,0.5,2,1.2,2.7,2.1c0.8,0.9,1.3,1.8,1.8,2.9c0.4,1.1,0.6,2.2,0.6,3.3
		c0,1.2-0.2,2.2-0.6,3.3c-0.4,1.1-1,2-1.7,2.8l2.4,2.7h-3.4V55.6z M75.5,46.9c0,1.2-0.1,2.4-0.4,3.4c-0.3,1.1-0.8,2-1.4,2.8
		s-1.4,1.4-2.4,1.9s-2.2,0.7-3.5,0.7c-1.4,0-2.6-0.2-3.6-0.7s-1.8-1.1-2.4-2c-0.6-0.8-1.1-1.7-1.3-2.8c-0.3-1.1-0.4-2.2-0.4-3.3v-9
		h3.4v9c0,0.8,0.1,1.5,0.2,2.2c0.1,0.7,0.4,1.3,0.7,1.8c0.3,0.5,0.8,1,1.3,1.3s1.2,0.5,2,0.5s1.5-0.2,2.1-0.5s1-0.8,1.4-1.3
		c0.3-0.5,0.6-1.1,0.7-1.8s0.2-1.4,0.2-2.1v-9h3.4C75.5,38,75.5,46.9,75.5,46.9z M82.4,55.6H79V37.8h3.4V55.6z M98.4,55.6H86.1V37.8
		h12.1v3h-8.7v4.3H97v2.8h-7.5v4.6h8.9V55.6z M111.6,55.6l-3.6-6h-3.4v6h-3.4V37.8h7.9c0.8,0,1.6,0.2,2.3,0.5
		c0.7,0.3,1.3,0.8,1.8,1.3c0.5,0.6,0.9,1.2,1.2,1.9s0.4,1.4,0.4,2.1c0,1.1-0.3,2.2-0.9,3.1c-0.6,0.9-1.4,1.6-2.3,2l4.1,6.7h-4.1
		V55.6z M133.3,50.1c-0.4,1.1-1,2-1.8,2.8s-1.7,1.5-2.8,2c-1.1,0.5-2.2,0.7-3.5,0.7s-2.5-0.3-3.5-0.8c-1.1-0.5-2-1.2-2.7-2
		c-0.8-0.8-1.3-1.8-1.8-2.9s-0.6-2.2-0.6-3.3c0-1.2,0.2-2.3,0.7-3.4c0.4-1.1,1-2,1.8-2.9c0.8-0.8,1.7-1.5,2.8-2
		c1.1-0.5,2.2-0.7,3.5-0.7s2.5,0.3,3.5,0.8c1.1,0.5,2,1.2,2.7,2.1c0.8,0.9,1.3,1.8,1.8,2.9c0.4,1.1,0.6,2.2,0.6,3.3
		C134,47.9,133.8,49.1,133.3,50.1z M153.2,55.6l-1.6-4.4h-6.2l-1.6,4.4h-3.5l6.8-17.8h3.1l6.8,17.8H153.2z M173.2,46.9
		c0,1.2-0.1,2.4-0.4,3.4c-0.3,1.1-0.8,2-1.4,2.8c-0.6,0.8-1.4,1.4-2.4,1.9s-2.2,0.7-3.5,0.7c-1.4,0-2.6-0.2-3.6-0.7s-1.8-1.1-2.4-2
		c-0.6-0.8-1.1-1.7-1.3-2.8c-0.3-1.1-0.4-2.2-0.4-3.3v-9h3.4v9c0,0.8,0.1,1.5,0.2,2.2c0.1,0.7,0.4,1.3,0.7,1.8s0.8,1,1.3,1.3
		s1.2,0.5,2,0.5s1.5-0.2,2.1-0.5s1-0.8,1.4-1.3c0.3-0.5,0.6-1.1,0.7-1.8s0.2-1.4,0.2-2.1v-9h3.4V46.9z M194.6,55.6h-3.4V43.8
		l-4.6,8.8h-1.9l-4.6-8.8v11.8h-3.4V37.8h3.7l5.2,10.1l5.3-10.1h3.7V55.6z M210.6,55.6h-12.3V37.8h12.1v3h-8.7v4.3h7.5v2.8h-7.5v4.6
		h8.9V55.6z M228.7,55.6h-2.8l-9.1-11.4v11.4h-3.4V37.8h2.7l9.2,11.7V37.9h3.5L228.7,55.6L228.7,55.6z M240,55.6h-3.4V40.9h-5.7v-3
		h14.8v3H240V55.6z M257.4,55.6l-1.6-4.4h-6.2l-1.6,4.4h-3.5l6.8-17.8h3.1l6.8,17.8H257.4z M273.4,55.6l-3.6-6h-3.4v6H263V37.8h7.9
		c0.8,0,1.6,0.2,2.3,0.5c0.7,0.3,1.3,0.8,1.8,1.3c0.5,0.6,0.9,1.2,1.2,1.9s0.4,1.4,0.4,2.1c0,1.1-0.3,2.2-0.9,3.1
		c-0.6,0.9-1.4,1.6-2.3,2l4.1,6.7h-4.1V55.6z M303.4,55.6H300V43.8l-4.6,8.8h-1.9l-4.6-8.8v11.8h-3.4V37.8h3.7l5.2,10.1l5.3-10.1
		h3.7L303.4,55.6L303.4,55.6z M310.6,55.6h-3.4V37.8h3.4V55.6z M326.5,52.9c-0.4,0.7-0.8,1.2-1.5,1.6c-0.6,0.4-1.3,0.7-2.1,0.9
		s-1.6,0.3-2.5,0.3c-1.3,0-2.6-0.2-4-0.6c-1.3-0.4-2.5-1-3.5-1.7l1.5-3c0.1,0.2,0.4,0.3,0.8,0.6c0.4,0.2,0.9,0.5,1.4,0.7
		s1.1,0.4,1.8,0.6c0.7,0.2,1.3,0.2,2,0.2c1.9,0,2.9-0.6,2.9-1.8c0-0.4-0.1-0.7-0.3-1c-0.2-0.3-0.5-0.5-0.9-0.7s-0.9-0.4-1.4-0.5
		c-0.6-0.2-1.2-0.3-1.9-0.5c-0.8-0.2-1.6-0.5-2.2-0.8s-1.1-0.6-1.6-1s-0.7-0.8-0.9-1.3c-0.2-0.5-0.3-1.1-0.3-1.8
		c0-0.9,0.2-1.7,0.5-2.4s0.8-1.3,1.4-1.8s1.3-0.8,2.1-1.1c0.8-0.2,1.6-0.4,2.5-0.4c1.2,0,2.4,0.2,3.5,0.6c1,0.4,2,0.9,2.8,1.4
		l-1.5,2.8c-0.1-0.1-0.3-0.3-0.6-0.5c-0.3-0.2-0.7-0.4-1.1-0.6c-0.4-0.2-0.9-0.4-1.4-0.5s-1-0.2-1.6-0.2c-0.9,0-1.7,0.2-2.1,0.5
		c-0.5,0.4-0.7,0.8-0.7,1.5c0,0.4,0.1,0.7,0.3,0.9c0.2,0.2,0.4,0.5,0.8,0.6c0.3,0.2,0.8,0.3,1.3,0.5c0.5,0.1,1.1,0.3,1.8,0.5
		c0.9,0.2,1.7,0.5,2.4,0.8s1.3,0.6,1.8,1s0.9,0.9,1.1,1.4c0.3,0.6,0.4,1.2,0.4,2.1C327,51.5,326.8,52.3,326.5,52.9z M342.8,55.6
		h-2.9l-7-17.8h3.6l4.8,13.4l4.8-13.4h3.6L342.8,55.6z M364,55.6h-12.3V37.8h12.1v3h-8.7v4.3h7.5v2.8h-7.5v4.6h8.9V55.6z
		 M382.1,55.6h-2.8l-9.1-11.4v11.4h-3.4V37.8h2.7l9.2,11.7V37.9h3.5v17.7H382.1z M393.4,55.6H390V40.9h-5.7v-3H399v3h-5.7v14.7
		H393.4z M410.8,55.6l-1.6-4.4H403l-1.6,4.4h-3.5l6.8-17.8h3.1l6.8,17.8H410.8z M428.2,52.9c-0.4,0.7-0.8,1.2-1.5,1.6
		c-0.6,0.4-1.3,0.7-2.1,0.9s-1.6,0.3-2.5,0.3c-1.3,0-2.6-0.2-4-0.6c-1.3-0.4-2.5-1-3.5-1.7l1.5-3c0.1,0.2,0.4,0.3,0.8,0.6
		c0.4,0.2,0.9,0.5,1.4,0.7s1.1,0.4,1.8,0.6c0.7,0.2,1.3,0.2,2,0.2c1.9,0,2.9-0.6,2.9-1.8c0-0.4-0.1-0.7-0.3-1
		c-0.2-0.3-0.5-0.5-0.9-0.7s-0.9-0.4-1.4-0.5c-0.6-0.2-1.2-0.3-1.9-0.5c-0.8-0.2-1.6-0.5-2.2-0.8s-1.1-0.6-1.6-1s-0.7-0.8-0.9-1.3
		c-0.2-0.5-0.3-1.1-0.3-1.8c0-0.9,0.2-1.7,0.5-2.4s0.8-1.3,1.4-1.8s1.3-0.8,2.1-1.1c0.8-0.2,1.6-0.4,2.5-0.4c1.2,0,2.4,0.2,3.5,0.6
		c1,0.4,2,0.9,2.8,1.4l-1.5,2.8c-0.1-0.1-0.3-0.3-0.6-0.5c-0.3-0.2-0.7-0.4-1.1-0.6c-0.4-0.2-0.9-0.4-1.4-0.5s-1-0.2-1.6-0.2
		c-0.9,0-1.7,0.2-2.1,0.5c-0.5,0.4-0.7,0.8-0.7,1.5c0,0.4,0.1,0.7,0.3,0.9c0.2,0.2,0.4,0.5,0.8,0.6c0.3,0.2,0.8,0.3,1.3,0.5
		c0.5,0.1,1.1,0.3,1.8,0.5c0.9,0.2,1.7,0.5,2.4,0.8s1.3,0.6,1.8,1s0.9,0.9,1.1,1.4c0.3,0.6,0.4,1.2,0.4,2.1
		C428.7,51.5,428.6,52.3,428.2,52.9z"/>
</g>
</svg>
