<?xml version="1.0" encoding="utf-8"?>
<!-- Generator: Adobe Illustrator 21.0.0, SVG Export Plug-In . SVG Version: 6.00 Build 0)  -->
<svg version="1.1" id="Layer_1" xmlns="http://www.w3.org/2000/svg" xmlns:xlink="http://www.w3.org/1999/xlink" x="0px" y="0px"
	 viewBox="0 0 97.9 112.7" style="enable-background:new 0 0 97.9 112.7;" xml:space="preserve">
<style type="text/css">
	.st0{fill:#FFFFFF;}
</style>
<g>
	<g>
		<g>
			<path class="st0" d="M33,25.9c-6,0-10.9-4.9-10.9-10.9S27,4.1,33,4.1S43.9,9,43.9,15S39,25.9,33,25.9z M33,6.1
				c-4.9,0-8.9,4-8.9,8.9s4,8.9,8.9,8.9s8.9-4,8.9-8.9S37.9,6.1,33,6.1z"/>
			<path class="st0" d="M33,26.2c-6.1,0-11.1-5-11.1-11.1S26.9,3.9,33,3.9s11.2,5,11.2,11.2C44.2,21.2,39.2,26.2,33,26.2z M33,4.4
				c-5.9,0-10.6,4.8-10.6,10.7S27.2,25.7,33,25.7c5.9,0,10.7-4.8,10.7-10.6C43.7,9.2,38.9,4.4,33,4.4z M33,24.2
				c-5,0-9.1-4.1-9.1-9.1S28,5.9,33,5.9s9.2,4.1,9.2,9.2C42.2,20.1,38.1,24.2,33,24.2z M33,6.4c-4.8,0-8.6,3.9-8.6,8.7
				s3.9,8.6,8.6,8.6s8.7-3.9,8.7-8.6S37.8,6.4,33,6.4z"/>
		</g>
	</g>
	<g>
		<g>
			<path class="st0" d="M39.9,112.5c-3.6,0-6.4-2.9-6.4-6.4V67.3h-0.9V106c0,3.6-2.9,6.4-6.4,6.4c-3.4,0-6-2.8-6-6.4V35.6
				c-1.9-1.1-4.6-2.9-7.4-5.5C7.9,25.6,1.8,17.6,0.3,5.3C0.1,4.1,0.5,2.9,1.2,2s1.8-1.6,3-1.7c1.2-0.2,2.4,0.2,3.3,0.9
				s1.6,1.8,1.7,3c0.9,7.5,4.1,13.8,9.3,18.9c3,3,6,4.6,7.3,5.3h14.5c0.8,0,1.5,0,2.2-0.1c3.2-0.1,5.7-0.2,8.8,2.2
				c5.3,4.4,8.8,18.8,10.2,27c3.6-2.4,13.6-9.1,19.7-13.3c-0.2-1.2,0.1-2.5,0.3-3c0-0.1,0-0.3-0.1-0.4c-1.9-0.8-6.3-2.7-7.2-2.9
				L73,37.5l0.6-1.1c3-5.5,8.7-6.7,9-6.8l0.7-0.1l5.3,9.5l2.2-1.3l3.3,4.6L91.7,44l6.2,8.9l-0.4,0.6c-0.2,0.2-3.8,4.8-10,5.1
				l-1.2,0.1l0.2-1.2c0.2-1,0.4-5.7,0.5-7.8c-0.1-0.1-0.2-0.2-0.3-0.2c-0.7,0-1.5-0.2-2.1-0.5c-6,4-19.2,12.8-21.8,14.7
				c0,1.3-0.4,3.1-2,4.3c-1.5,1-3.1,1-4.5,0.3c-3.5,2.5-4.5,3-4.7,3.1l-0.8,0.4L48,67.1l0.7-0.5c0.1,0,1.5-1.1,5.2-3.6
				c-1.3-10-4.6-23.1-7.9-25.2v68.4C45.9,109.7,43.3,112.5,39.9,112.5z M30.6,65.3h4.9V106c0,2.4,2,4.4,4.4,4.4s4.1-1.9,4.1-4.4
				V35.4h1h0.1c7.4,0,10.7,26.7,10.9,27.8l0.1,0.6l-0.5,0.3c-2.5,1.6-4.1,2.7-4.9,3.3l0.9,1.5c0.7-0.4,2-1.3,4.2-2.8l0.6-0.5
				l0.6,0.5c0.7,0.6,1.7,0.7,2.7,0.1c1.1-0.8,1.2-2.4,1.1-2.9l-0.1-0.6l0.5-0.4c1-0.8,17.2-11.6,23-15.5l0.7-0.5l0.6,0.6
				c0.3,0.3,0.9,0.5,1.3,0.5h0.1H87c1.4,0.1,2.1,1.4,2.1,1.5l0.1,0.2v0.3c0,0.6-0.2,4.7-0.4,7c3.5-0.5,5.9-2.7,6.8-3.7l-6.5-9.2
				l2.4-1.7l-1-1.5l-2.4,1.4l-5.6-9.9c-1.3,0.4-4.3,1.7-6.3,4.6c2.1,0.8,6,2.5,6.5,2.7l0.2,0.1l0.2,0.2c0.1,0.1,1,1.3,0.5,2.6
				c-0.2,0.5-0.3,1.8-0.1,2.2l0.4,0.8L83,45.6c-0.9,0.6-20.9,14.1-21.7,14.6L60,60.9l-0.2-1.5c-1.3-8.8-4.9-23.3-9.7-27.3
				c-2.4-1.9-4.3-1.8-7.4-1.7c-0.7,0-1.4,0-2.3,0.1h-15l-0.2-0.1c-1.3-0.6-4.6-2.5-8.1-5.8c-5.5-5.4-8.9-12.2-9.9-20.1
				c-0.1-0.7-0.4-1.3-1-1.7C5.8,2.4,5.1,2.2,4.5,2.3c-0.7,0.1-1.3,0.4-1.7,1S2.2,4.4,2.3,5.1c1.4,11.7,7.2,19.3,11.8,23.5
				c2.9,2.7,5.7,4.5,7.5,5.5l0.5,0.3V106c0,2.6,1.7,4.4,4,4.4c2.4,0,4.4-2,4.4-4.4V65.3H30.6z"/>
			<path class="st0" d="M39.9,112.7c-3.7,0-6.7-3-6.7-6.7V67.6h-0.4v38.5c0,3.7-3,6.7-6.7,6.7c-3.6,0-6.2-2.9-6.2-6.7V35.7
				c-1.8-1.1-4.5-2.8-7.3-5.5C7.7,25.7,1.6,17.7,0,5.4c-0.2-1.3,0.2-2.5,1-3.5s1.9-1.6,3.2-1.8s2.5,0.2,3.5,1S9.3,3,9.5,4.3
				c0.9,7.4,4,13.7,9.2,18.8c2.9,2.8,5.8,4.5,7.2,5.2h14.5c0.8,0,1.5,0,2.2-0.1c3.3-0.1,5.9-0.2,9,2.2c4.9,4.1,8.5,16.9,10.2,26.8
				c3.8-2.5,13.5-9,19.3-13c-0.2-1.2,0.1-2.4,0.3-3v-0.1c-2.3-1-6.2-2.6-7.1-2.9l-1.5-0.4l0.7-1.3c3-5.6,8.9-6.8,9.1-6.9l0.9-0.2
				l5.3,9.4l2.2-1.3l3.5,5l-2.4,1.7l6.2,8.8l-0.6,0.7c-0.2,0.2-3.8,4.9-10.2,5.2L86,59l0.2-1.5c0.1-0.9,0.4-5.2,0.5-7.6l-0.1-0.1
				c-0.7,0-1.5-0.2-2.1-0.5c-6.3,4.2-18.8,12.5-21.6,14.5c0,1.4-0.6,3.2-2.1,4.4c-1.5,1-3.2,1.1-4.6,0.4c-3.4,2.4-4.5,2.9-4.6,3
				l-1,0.5l-3.1-5l0.9-0.7c0,0,1.4-1.1,5.1-3.5c-1.3-10.3-4.4-21.9-7.4-24.5v67.9C46.2,109.9,43.5,112.7,39.9,112.7z M32.3,67.1h1.4
				v39c0,3.4,2.8,6.2,6.2,6.2c3.3,0,5.8-2.7,5.8-6.2V37.2l0.4,0.2c3.7,2.4,6.9,16.8,8,25.3v0.2L54,63c-3.8,2.5-5.2,3.6-5.2,3.6
				L48.2,67l2.6,4.3l0.6-0.3c0.1,0,1.1-0.6,4.6-3l0.1-0.1l0.1,0.1c1.3,0.7,2.8,0.6,4.2-0.3c1.4-1.1,1.9-2.8,1.9-4.1v-0.1l0.1-0.1
				c2.6-1.8,15.5-10.5,21.8-14.7l0.1-0.1l0.1,0.1c0.6,0.4,1.3,0.5,2,0.5l0,0l0,0c0.2,0,0.3,0.2,0.4,0.3l0.1,0.1v0.1
				c0,0.7-0.3,6.7-0.5,7.8l-0.1,0.9h0.9c6.1-0.3,9.6-4.8,9.8-5l0.3-0.4l-5.9-9l2.4-1.7l-3-4.2l-2.2,1.3l-5.3-9.5L82.7,30
				c-0.2,0-5.9,1.2-8.8,6.6l-0.4,0.8l0.9,0.3c0.9,0.3,5,2,7.2,3h0.1v0.1c0.1,0.2,0.2,0.4,0.1,0.6c-0.2,0.6-0.5,1.8-0.3,2.9v0.2
				l-0.1,0.1c-6,4-16.2,10.9-19.7,13.3L61.4,58l-0.1-0.4c-1.6-9.9-5.2-22.8-10.1-26.9c-2.9-2.3-5.4-2.2-8.6-2.1
				c-0.7,0-1.5,0-2.2,0.1H25.8c-1.5-0.7-4.4-2.4-7.4-5.4C13.1,18.2,10,11.8,9,4.2C8.9,3.1,8.3,2.1,7.4,1.4s-2-1-3.2-0.9
				C3.1,0.7,2.1,1.2,1.4,2.1s-1,2-0.9,3.2C2,17.5,8.1,25.4,12.9,29.9c2.8,2.7,5.6,4.4,7.3,5.5l0.1,0.1v70.6c0,3.5,2.5,6.2,5.7,6.2
				c3.4,0,6.2-2.8,6.2-6.2L32.3,67.1L32.3,67.1z M39.9,110.7c-2.6,0-4.7-2.1-4.7-4.7V65.6h-4.4v40.5c0,2.6-2.1,4.7-4.7,4.7
				c-2.5,0-4.2-2-4.2-4.7V34.6l-0.4-0.2c-1.8-1-4.6-2.8-7.6-5.6C9.3,24.5,3.5,16.9,2,5.1c-0.1-0.7,0.1-1.5,0.6-2
				c0.5-0.6,1.1-1,1.8-1c0.7-0.1,1.5,0.1,2,0.6c0.6,0.5,1,1.1,1,1.8c1,7.9,4.3,14.6,9.8,20c3.4,3.3,6.7,5.1,8,5.7l0.2,0.1h15
				c0.8,0,1.5,0,2.2-0.1c3.2-0.1,5.1-0.2,7.6,1.8c4.9,4,8.5,18.6,9.8,27.5l0.2,1.1l1-0.6c0.8-0.5,21.5-14.4,21.7-14.6l0.5-0.4
				l-0.3-0.6c-0.3-0.6-0.1-1.9,0.1-2.5c0.5-1.2-0.3-2.2-0.4-2.3l-0.1-0.1l-0.2-0.1c0,0-4.2-1.8-6.5-2.7l-0.3-0.1l0.2-0.3
				c2.1-3,5.2-4.2,6.4-4.6l0.2-0.1l5.5,9.9l2.4-1.4l1.3,1.9l-2.4,1.7l6.5,9.2L95.6,53c-0.9,0.9-3.4,3.2-7,3.7h-0.3v-0.3
				c0.2-2.3,0.4-6.6,0.4-7v-0.2L88.6,49c0-0.1-0.6-1.3-1.9-1.4h-0.1l0,0c-0.5,0-1.2-0.2-1.5-0.5l-0.4-0.5l-0.5,0.3
				c-5.8,3.8-22,14.7-23,15.4l-0.4,0.3l0.1,0.5c0.1,0.6,0,2.3-1.2,3.2c-1.1,0.7-2.2,0.6-3-0.1L56.3,66l-0.5,0.3
				c-2.2,1.6-3.5,2.4-4.2,2.8l-0.2,0.1l-1.2-1.9l0.2-0.1c0.7-0.5,2.3-1.6,4.9-3.3l0.4-0.3l-0.1-0.5c-1.2-9.5-4.9-27.6-10.6-27.6
				h-0.8v70.4C44.2,108.8,42.4,110.7,39.9,110.7z M30.3,65.1h5.4v41c0,2.3,1.9,4.2,4.2,4.2c2.2,0,3.8-1.8,3.8-4.2V35.2h1.2H45
				c7.5,0,10.8,25.2,11.1,28l0.1,0.8l-0.7,0.4c-2.4,1.6-3.9,2.6-4.7,3.2l0.7,1.1c0.7-0.5,2-1.3,3.9-2.7l0.8-0.6L57,66
				c0.6,0.6,1.5,0.6,2.4,0c1-0.8,1.1-2.2,1-2.7l-0.1-0.8l0.6-0.5c1-0.8,17.2-11.7,23-15.5l0.9-0.6l0.7,0.8c0.2,0.2,0.7,0.4,1.1,0.4
				h0.1h0.1c1.6,0.1,2.3,1.5,2.3,1.7l0.1,0.3v0.3c0,0.5-0.2,4.4-0.4,6.7c3.1-0.6,5.3-2.5,6.2-3.4l-6.5-9.3l2.4-1.7l-0.8-1.1
				l-2.4,1.5l-5.6-10c-1.3,0.4-3.9,1.6-5.8,4.1c2.3,0.9,6.2,2.6,6.2,2.6l0.3,0.2l0.2,0.2c0.1,0.1,1.1,1.4,0.5,2.8
				c-0.2,0.5-0.3,1.7-0.1,2l0.5,1L83,45.6c-0.2,0.1-20.9,14.1-21.7,14.6l-1.6,1l-0.3-1.9c-1.3-8.8-4.8-23.2-9.6-27.2
				c-2.4-1.8-4.2-1.8-7.3-1.7c-0.7,0-1.4,0-2.3,0.1H25.1l-0.2-0.1c-1.3-0.6-4.7-2.5-8.1-5.8C11.4,19.3,8,12.5,7,4.5
				C6.9,3.9,6.6,3.4,6.2,3C5.7,2.6,5.1,2.4,4.5,2.5S3.4,2.9,3,3.4S2.4,4.5,2.5,5.1C4,16.7,9.7,24.2,14.3,28.4
				c2.9,2.7,5.7,4.5,7.5,5.5l0.6,0.4v71.8c0,2.4,1.6,4.2,3.7,4.2c2.3,0,4.2-1.9,4.2-4.2V65.1z"/>
		</g>
	</g>
</g>
</svg>
