<?xml version="1.0" encoding="utf-8"?>
<!-- Generator: Adobe Illustrator 21.0.0, SVG Export Plug-In . SVG Version: 6.00 Build 0)  -->
<svg version="1.1" id="Layer_1" xmlns="http://www.w3.org/2000/svg" xmlns:xlink="http://www.w3.org/1999/xlink" x="0px" y="0px"
	 viewBox="0 0 81.9 110.3" style="enable-background:new 0 0 81.9 110.3;" xml:space="preserve">
<style type="text/css">
	.st0{fill:#FFFFFF;}
	.st1{font-family:'ArialMT';}
	.st2{font-size:20.8705px;}
	.st3{font-size:12.9668px;}
</style>
<text transform="matrix(1 0 0 1 35.1841 65.3195)" class="st0 st1 st2">5</text>
<g>
	<text transform="matrix(1 0 0 1 29.4844 79.9973)" class="st0 st1 st3">min</text>
</g>
<path class="st0" d="M80,66.7c0-21.2-17-38.5-38.1-38.8v-1.5h2.4c0.7,0,1.2-0.5,1.2-1.2S45,24,44.3,24H37c-0.7,0-1.2,0.5-1.2,1.2
	s0.5,1.2,1.2,1.2h2.4v1.5c-20.7,0.9-37.2,18-37.2,38.8c0,11.9,5.4,22.5,13.8,29.6l-4.3,8.2c-0.5,0.9-0.6,2-0.2,2.9s1,1.7,1.8,2.2
	c0.6,0.2,1.1,0.5,1.7,0.5c0.4,0,0.7,0,1.1-0.1c1-0.4,1.7-1,2.2-1.8l3.8-7.3c5.5,3.1,12,4.9,18.7,4.9c7,0,13.5-1.8,19.2-5l3.9,7.6
	c0.5,0.9,1.2,1.6,2.2,1.8c0.4,0.1,0.7,0.1,1.1,0.1c0.6,0,1.2-0.1,1.7-0.5c1.8-1,2.6-3.3,1.6-5.1l-4.4-8.5C74.7,89,80,78.4,80,66.7z
	 M16.3,107c-0.1,0.4-0.5,0.6-0.9,0.7s-0.7,0.1-1.1-0.1c-0.4-0.1-0.6-0.5-0.7-0.9c-0.1-0.4,0.1-0.7,0.4-1l4-7.7
	c0.7,0.5,1.5,1.1,2.2,1.5L16.3,107z M68.9,105.7c0.4,0.6,0.1,1.5-0.6,1.8c-0.4,0.1-0.7,0.2-1.1,0.1s-0.6-0.4-0.9-0.6l-4-7.7
	c0.7-0.5,1.5-1,2.2-1.6L68.9,105.7z M41.1,103.2C21,103.2,4.7,86.9,4.7,66.8S21,30.4,41.1,30.4s36.4,16.3,36.4,36.4
	C77.6,86.8,61.1,103.2,41.1,103.2z M41.1,35.6c-17.1,0-31.2,14-31.2,31.2C9.8,84,23.8,98,41.1,98s31.2-14,31.2-31.3
	C72.3,49.5,58.3,35.6,41.1,35.6z M41.1,95.5c-15.8,0-28.8-12.9-28.8-28.8s12.9-28.8,28.8-28.8s28.8,13,28.8,28.8S57,95.5,41.1,95.5z
	 M3.1,42.1l27.3-17.6l-0.6-1c-2.4-3.9-5.8-7.2-11.9-6.1c4.2-4.2,8.3-9.1,9.1-9.9C35.1,0.9,46.4,0.8,54.8,7l0.6,0.4
	c0.7,0.9,4.3,5.6,8.7,9.9c-6.1-1.2-9.6,2.2-12,6.1l-0.6,1L78.8,42l0.6-1c2.2-3.4,2.9-6.6,2.2-9.6c-0.7-2.9-2.7-5.6-6-8.2
	c1-0.4,1.8-1,2.4-1.8c0.6-1,0.9-2.2,0.6-3.3c-0.2-1.2-1-2.2-2-2.8s-2.2-0.9-3.3-0.6c-1.2,0.2-2.2,1-2.8,2c-0.5,0.7-0.7,1.7-0.7,2.6
	C63.5,14.1,57.3,5.8,57.2,5.8l-1-0.7c-9.2-7-21.8-6.7-30.9,0.5l-0.1,0.1C25.1,5.8,17,15.6,12,19.3c0.1-1-0.1-2-0.7-2.8
	c-0.6-1-1.6-1.7-2.8-2c-1.2-0.2-2.3,0-3.3,0.6s-1.7,1.6-2,2.8s0,2.3,0.6,3.3c0.6,0.9,1.5,1.5,2.4,1.8c-3.3,2.7-5.4,5.4-6,8.2
	c-0.7,3.1,0,6.1,2.2,9.6L3.1,42.1z M79.3,32c0.5,2.1,0.1,4.2-1.2,6.6L54.9,23.8c2.8-4,6.7-6.9,16.7-0.5C76,26.1,78.7,29.1,79.3,32z
	 M72.7,17.9c0.2-0.5,0.7-0.7,1.2-0.9c0.1,0,0.2,0,0.5,0c0.4,0,0.7,0.1,1.1,0.4c0.5,0.2,0.7,0.7,0.9,1.2c0.1,0.5,0,1.1-0.2,1.5
	C76,20.6,75.5,20.8,75,21c-0.5,0.1-1.1,0-1.5-0.2c-0.5-0.2-0.7-0.7-0.9-1.2C72.3,18.9,72.3,18.3,72.7,17.9z M5.9,20
	c-0.2-0.5-0.4-1-0.2-1.5c0.1-0.5,0.5-1,0.9-1.2c0.3-0.2,0.7-0.3,1-0.3c0.1,0,0.2,0,0.5,0c0.5,0.1,1,0.4,1.2,0.9s0.4,1,0.2,1.5
	c-0.1,0.5-0.4,1-0.9,1.2s-1,0.4-1.5,0.2C6.6,20.9,6.3,20.5,5.9,20z M2.6,32c0.7-2.9,3.3-5.9,7.7-8.7c4.2-2.7,7.3-3.8,9.8-3.8
	c3.3,0,5.3,2,6.9,4.3L4,38.6C2.6,36.2,2.1,34.1,2.6,32z M40.7,47.2c0.7,0,1.2-0.5,1.2-1.2v-4.9c0-0.7-0.5-1.2-1.2-1.2
	s-1.2,0.5-1.2,1.2V46C39.5,46.7,40,47.2,40.7,47.2z M30,49.8c0.2,0,0.4,0,0.6-0.1c0.6-0.4,0.7-1.1,0.5-1.7l-2-3.4
	c-0.4-0.6-1.1-0.7-1.7-0.5c-0.6,0.4-0.7,1.1-0.5,1.7l2,3.4C29.3,49.5,29.7,49.8,30,49.8z M18.5,55.5l3.4,2c0.2,0.1,0.4,0.1,0.6,0.1
	c0.4,0,0.9-0.2,1.1-0.6c0.4-0.6,0.1-1.3-0.5-1.7l-3.4-2c-0.6-0.4-1.3-0.1-1.7,0.5C17.7,54.4,17.9,55.2,18.5,55.5z M21.1,68
	c0-0.7-0.5-1.2-1.2-1.2h-3.7c-0.7,0-1.2,0.5-1.2,1.2s0.5,1.2,1.2,1.2h3.7C20.6,69.3,21.1,68.8,21.1,68z M22.6,77l-3.4,2
	c-0.6,0.4-0.7,1.1-0.5,1.7c0.2,0.4,0.6,0.6,1.1,0.6c0.2,0,0.4,0,0.6-0.1l3.4-2c0.6-0.4,0.7-1.1,0.5-1.7C23.9,76.8,23.1,76.6,22.6,77
	z M31.7,84.4c-0.6-0.4-1.3-0.1-1.7,0.5l-2,3.4c-0.4,0.6-0.1,1.3,0.5,1.7c0.2,0.1,0.4,0.1,0.6,0.1c0.4,0,0.9-0.2,1.1-0.6l2-3.4
	C32.6,85.5,32.4,84.8,31.7,84.4z M41.9,87.6c-0.7,0-1.2,0.5-1.2,1.2v3.7c0,0.7,0.5,1.2,1.2,1.2s1.2-0.5,1.2-1.2v-3.7
	C43.1,88.1,42.6,87.6,41.9,87.6z M53.7,84.3c-0.4-0.6-1.1-0.7-1.7-0.5c-0.6,0.4-0.7,1.1-0.5,1.7l2,3.4c0.2,0.4,0.6,0.6,1.1,0.6
	c0.2,0,0.4,0,0.6-0.1c0.6-0.4,0.7-1.1,0.5-1.7L53.7,84.3z M64.2,77.6l-3.4-2c-0.6-0.4-1.3-0.1-1.7,0.5s-0.1,1.3,0.5,1.7l3.4,2
	c0.2,0.1,0.4,0.1,0.6,0.1c0.4,0,0.9-0.2,1.1-0.6C64.9,78.7,64.8,78,64.2,77.6z M66.4,65.6h-3.7c-0.7,0-1.2,0.5-1.2,1.2
	S62,68,62.7,68h3.7c0.7,0,1.2-0.5,1.2-1.2S67.1,65.6,66.4,65.6z M60.2,56.5l3.4-2c0.6-0.4,0.7-1.1,0.5-1.7c-0.4-0.6-1.1-0.7-1.7-0.5
	l-3.4,2c-0.6,0.4-0.7,1.1-0.5,1.7c0.2,0.4,0.6,0.6,1.1,0.6C59.8,56.6,60,56.6,60.2,56.5z M50.9,48.8c0.2,0.1,0.4,0.1,0.6,0.1
	c0.4,0,0.9-0.2,1.1-0.6l2-3.4c0.4-0.6,0.1-1.3-0.5-1.7s-1.3-0.1-1.7,0.5l-1.8,3.4C50.1,47.7,50.2,48.4,50.9,48.8z"/>
</svg>
