<?xml version="1.0" encoding="utf-8"?>
<!-- Generator: Adobe Illustrator 21.0.2, SVG Export Plug-In . SVG Version: 6.00 Build 0)  -->
<svg version="1.1" id="Layer_1" xmlns="http://www.w3.org/2000/svg" xmlns:xlink="http://www.w3.org/1999/xlink" x="0px" y="0px"
	 viewBox="0 0 1919.9 527.5" style="enable-background:new 0 0 1919.9 527.5;" xml:space="preserve">
<style type="text/css">
	.st0{fill:#C300FF;}
	.st1{fill:#25F9C7;}
	.st2{fill:#7230FF;}
</style>
<g>
	<path class="st0" d="M1421.2,379.5c-11.2,0-22.7-1.2-34.4-4C1323.4,360.7,1258,302.7,1181,193C1099.7,77.1,1028.6,20.1,963.4,18.6
		c-35-0.8-69.6,14.5-105.7,46.9c-32.3,28.9-62.8,68.5-92.4,106.9c-7.8,10.2-16,20.7-24,30.9c-24.5,31-53.5,66.5-83.2,94.7
		c-29.6,28.1-57.7,46.9-86,57.6c-19.4,7.3-39.6,11-60.7,11c-49.4,0-104.1-20.2-168-61.4c-44.1-28.4-89.6-46.8-135.2-54.6
		c-36.5-6.2-73.1-5.7-108.9,1.5c-60.9,12.2-98.7,40.1-99.1,40.3l-0.6-0.8c0.4-0.3,38.4-28.2,99.5-40.5c35.9-7.2,72.7-7.7,109.3-1.5
		c45.7,7.8,91.3,26.2,135.5,54.7c90.9,58.6,163.3,74.6,227.8,50.2c42.9-16.2,86.1-47.2,168.8-152c8-10.2,16.1-20.7,24-30.8
		c29.6-38.4,60.2-78,92.5-107c36.3-32.5,71.1-48,106.4-47.2c65.5,1.5,136.9,58.7,218.4,174.8c76.8,109.4,142,167.3,205.2,182.2
		c57,13.4,107.6-9.6,161.3-34c35.4-16.1,72.1-32.8,114.3-41.4c89.5-18.4,154.7-18.8,193.7-15.9c42.2,3.2,63.6,10.8,63.8,10.9
		l-0.3,0.9c-0.2-0.1-21.5-7.7-63.6-10.8c-38.9-2.9-104-2.5-193.3,15.9c-42.1,8.7-78.7,25.3-114.1,41.4
		C1506,361,1465.1,379.5,1421.2,379.5z"/>
	<path class="st1" d="M938,527.5c-18.5,0-36.5-3.1-54.6-9.5c-47.4-16.7-90.9-54.1-141.2-97.5c-26.6-23-56.8-49-90.7-74.4
		c-55.8-42-124.8-69.3-205-81.3c-64.2-9.5-135.7-9.3-212.4,0.8C103.4,282.7,1.2,322.8,0.2,323.2l-0.4-0.9
		c1-0.4,103.3-40.6,234.1-57.7c76.9-10.1,148.4-10.3,212.7-0.8c80.4,11.9,149.5,39.4,205.5,81.5c33.9,25.5,64.1,51.5,90.7,74.5
		c50.3,43.3,93.7,80.7,140.9,97.3c24.8,8.7,49.6,11.4,75.7,8.1c28.3-3.6,58.4-14.1,91.9-32.2c61.1-33,109.3-100,155.8-164.9
		c30.6-42.6,62.2-86.7,97.3-120.8c39.4-38.4,79.1-59.9,121.3-65.7c72.8-10.1,119.7,38,174.1,93.7c34.3,35.1,73.1,74.9,123.4,104.4
		c57.7,33.8,122,48.9,196.5,46.4l0,1c-74.7,2.6-139.2-12.7-197.1-46.5c-50.5-29.5-89.3-69.4-123.6-104.5
		c-54.1-55.5-100.9-103.4-173.2-93.4c-42,5.8-81.5,27.2-120.8,65.4c-35,34.1-66.6,78.1-97.2,120.7
		c-46.6,64.9-94.8,132.1-156.1,165.2c-33.6,18.1-63.8,28.7-92.3,32.3C952.3,527.1,945.1,527.5,938,527.5z"/>
	<path class="st2" d="M104.4,409.2c-18.8,0-40.7-2.7-64.4-10.7c-25-8.4-40.2-19-40.3-19.1l0.6-0.8c0.6,0.4,60.8,41.7,141,26
		c68-13.3,130-62.4,184.2-146c34.1-52.5,65.7-90.2,96.9-115.4c29.7-24.1,58.2-36,87-36.5c33-0.6,66.4,14.3,101.9,45.4
		c30.2,26.5,62.6,65.1,102.1,121.7c51,73.1,115.5,107.5,197,105.1c71.1-2.1,145.6-31.8,211.3-58c17.2-6.9,33.5-13.4,49.5-19.3
		c54.4-20.2,102-32.1,171.6-28.8c66,3.1,151.8,20.1,287.1,56.8c0.5,0.1,50,13.1,110.3,18.9c55.5,5.4,131.8,5.6,179.6-24l0.5,0.9
		c-48.1,29.7-124.6,29.5-180.3,24.1c-60.3-5.8-109.9-18.8-110.4-19c-135.2-36.6-221-53.6-286.9-56.7c-69.4-3.3-116.9,8.5-171.2,28.7
		c-15.9,5.9-32.2,12.4-49.4,19.3c-65.8,26.2-140.3,56-211.6,58.1c-2.7,0.1-5.3,0.1-7.9,0.1c-78.2,0-140.3-34.6-189.9-105.7
		c-39.4-56.5-71.8-95.1-102-121.6c-35.3-30.9-68.4-45.7-101.2-45.2c-28.6,0.5-56.8,12.3-86.4,36.3c-31,25.1-62.7,62.8-96.7,115.2
		c-54.4,83.9-116.6,133.2-184.9,146.5C131.4,407.6,118.8,409.2,104.4,409.2z"/>
	<circle class="st2" cx="511.8" cy="108.2" r="18.1"/>
	<circle class="st0" cx="962.6" cy="18.1" r="18.1"/>
	<circle class="st1" cx="1443.7" cy="140.7" r="18.1"/>
</g>
</svg>
