<?xml version="1.0" encoding="utf-8"?>
<!-- Generator: Adobe Illustrator 21.0.0, SVG Export Plug-In . SVG Version: 6.00 Build 0)  -->
<svg version="1.1" id="Layer_1" xmlns="http://www.w3.org/2000/svg" xmlns:xlink="http://www.w3.org/1999/xlink" x="0px" y="0px"
	 viewBox="0 0 1919.9 422" style="enable-background:new 0 0 1919.9 422;" xml:space="preserve">
<style type="text/css">
	.st0{fill:#C300FF;}
	.st1{fill:#25F9C7;}
	.st2{fill:#7230FF;}
</style>
<g>
	<path class="st0" d="M1421.1,305.4c-11.2-0.1-22.7-1.1-34.4-3.3c-63.3-11.7-128.6-57.8-205.3-144.9
		C1100.4,65.3,1029.4,20,964.2,18.8c-35-0.8-69.6,11.4-105.8,37c-32.3,22.8-62.9,54.2-92.6,84.6c-7.9,8.1-16.1,16.4-24.1,24.5
		c-24.6,24.5-53.6,52.6-83.4,74.9c-29.6,22.2-57.8,37.1-86.1,45.5c-19.4,5.7-39.6,8.6-60.7,8.6c-49.4,0-104.1-16.1-167.9-48.9
		c-44.1-22.6-89.5-37.2-135.1-43.5c-36.5-5-73.1-4.6-108.9,1C38.6,212,0.7,234,0.3,234.2l-0.6-0.6c0.4-0.3,38.5-22.3,99.6-32
		c35.9-5.6,72.7-6,109.3-1c45.7,6.2,91.3,20.9,135.4,43.6c90.8,46.5,163.2,59.4,227.7,40.1c42.8-12.8,86.1-37.3,169-120.2
		c8.1-8.1,16.2-16.4,24.1-24.4c29.7-30.4,60.3-61.8,92.7-84.7c36.4-25.7,71.2-38,106.5-37.3c65.5,1.3,136.7,46.8,218,139
		c76.6,86.7,141.7,132.8,204.9,144.7c57,10.6,107.7-7.5,161.4-26.8c35.4-12.8,72.2-26,114.4-32.7c89.5-14.5,154.7-14.8,193.7-12.4
		c42.2,2.6,63.6,8.6,63.8,8.7l-0.3,0.7c-0.2,0-21.5-6.1-63.6-8.6c-38.9-2.4-104-2-193.3,12.4c-42.1,6.8-78.8,20-114.2,32.7
		C1506,291,1465,305.5,1421.1,305.4z"/>
	<path class="st1" d="M937.6,421.8c-18.5,0-36.5-2.5-54.6-7.6c-47.4-13.3-90.8-43-141-77.5c-26.5-18.4-56.7-39-90.5-59.2
		c-55.7-33.4-124.6-55-204.8-64.7c-64.2-7.6-135.7-7.5-212.4,0.4c-130.7,13.3-233,45-234,45.3l-0.4-0.7c1-0.3,103.4-32,234.3-45.3
		c76.9-8,148.4-8,212.7-0.4c80.3,9.5,149.4,31.4,205.3,64.9c33.8,20.3,63.9,40.9,90.5,59.2c50.2,34.3,93.5,64.1,140.7,77.3
		c24.8,7,49.6,9.1,75.7,6.6c28.3-2.8,58.5-11.1,92-25.4c61-26.1,109.4-79.2,156-130.6c30.6-33.7,62.3-68.6,97.5-95.6
		c39.4-30.4,79.2-47.4,121.4-51.9c72.8-7.9,119.6,30.3,173.9,74.6c34.2,27.9,73,59.5,123.2,83c57.6,26.8,121.9,38.8,196.4,37l0,0.8
		c-74.7,2-139.2-10.2-197-37.2c-50.5-23.5-89.2-55.2-123.4-83.1c-54-44.1-100.7-82.2-173-74.3c-42,4.6-81.5,21.5-120.9,51.6
		c-35,27-66.7,61.9-97.4,95.6c-46.6,51.5-94.9,104.7-156.3,130.9c-33.7,14.3-63.9,22.7-92.4,25.5C952,421.7,944.8,422,937.6,421.8z"
		/>
	<path class="st2" d="M104.4,327c-18.8,0-40.7-2.3-64.4-8.6c-25-6.7-40.2-15.1-40.3-15.2l0.6-0.6c0.6,0.3,60.7,33.1,141,20.8
		c67.9-10.5,130-49.4,184.4-115.6c34.2-41.6,65.8-71.5,97.1-91.4c29.8-19,58.3-28.5,87.1-28.8c33-0.4,66.4,11.5,101.8,36.2
		c30.2,21.1,62.5,51.7,101.9,96.7c50.9,58.1,115.3,85.3,196.8,83.6c71.1-1.6,145.6-25.1,211.4-45.8c17.2-5.4,33.5-10.5,49.5-15.2
		c54.5-16,102.1-25.4,171.7-22.7c66,2.7,151.8,16.2,287,45.5c0.5,0,50,10.4,110.3,15.1c55.4,4.3,131.7,4.6,179.6-18.8l0.5,0.7
		c-48.1,23.6-124.6,23.3-180.3,18.9c-60.3-4.7-109.9-15-110.4-15.2c-135.1-29.4-220.9-43-286.8-45.5c-69.4-2.6-117,6.7-171.3,22.6
		c-15.9,4.7-32.2,9.7-49.4,15.2c-65.8,20.7-140.4,44.2-211.7,45.8c-2.7,0.1-5.3,0.1-7.9,0.1c-78.2-0.1-140.2-27.6-189.7-84.1
		c-39.3-44.9-71.7-75.5-101.8-96.6c-35.2-24.6-68.3-36.3-101.1-36c-28.6,0.3-56.9,9.6-86.5,28.6c-31,19.8-62.8,49.7-96.9,91.2
		c-54.5,66.6-116.8,105.5-185.1,116C131.4,325.6,118.8,326.9,104.4,327z"/>
	
		<ellipse transform="matrix(2.055047e-03 -1 1 2.055047e-03 421.9334 601.3242)" class="st2" cx="512.2" cy="89.3" rx="18.1" ry="18.1"/>
	
		<ellipse transform="matrix(2.055047e-03 -1 1 2.055047e-03 943.1413 981.361)" class="st0" cx="963.3" cy="18.1" rx="18.1" ry="18.1"/>
	
		<ellipse transform="matrix(2.055047e-03 -1 1 2.055047e-03 1325.353 1559.7269)" class="st1" cx="1444.1" cy="115.8" rx="18.1" ry="18.1"/>
</g>
</svg>
