<?xml version="1.0" encoding="utf-8"?>
<!-- Generator: Adobe Illustrator 21.0.0, SVG Export Plug-In . SVG Version: 6.00 Build 0)  -->
<svg version="1.1" id="Layer_1" xmlns="http://www.w3.org/2000/svg" xmlns:xlink="http://www.w3.org/1999/xlink" x="0px" y="0px"
	 viewBox="0 0 1919.9 465" style="enable-background:new 0 0 1919.9 465;" xml:space="preserve">
<style type="text/css">
	.st0{fill:#C300FF; z-index:-1000;}
	.st1{fill:#25F9C7; z-index:-1000;}
	.st2{fill:#7230FF; z-index:-1000;}
</style>
<path class="st0" d="M1548.8,162c35.4,14.1,72.1,28.7,114.2,36.2c89.3,15.9,154.4,16.4,193.3,13.7c42.1-2.8,63.4-9.5,63.6-9.5
	l0.3,0.8c-0.2,0.1-21.6,6.8-63.8,9.6c-39,2.7-104.2,2.3-193.7-13.7c-42.2-7.4-79-22-114.4-36.2c-53.7-21.4-104.4-41.4-161.4-29.7
	c-63.2,13.2-128.3,64.2-204.9,160.1c-81.3,102-152.5,152.4-218,153.8c-35.3,0.8-70.1-12.8-106.5-41.3c-32.4-25.3-63-60.1-92.7-93.7
	c-7.9-8.9-16-18-24.1-27c-82.9-91.7-126.2-118.9-169-133c-64.5-21.4-136.9-7.1-227.7,44.4c-44.1,25.1-89.7,41.4-135.4,48.3
	c-36.6,5.5-73.4,5.1-109.3-1.1c-61.1-10.7-99.2-35.1-99.6-35.4l0.6-0.7c0.4,0.2,38.3,24.6,99.2,35.2c35.8,6.2,72.4,6.6,108.9,1.1
	c45.6-7,91-23.1,135.1-48.1c63.8-36.3,118.5-54.1,167.9-54.1c21.1,0,41.3,3.2,60.7,9.5c28.3,9.3,56.5,25.8,86.1,50.4
	c29.8,24.7,58.8,55.8,83.4,82.9c8,9,16.2,18.1,24.1,27.1c29.7,33.6,60.3,68.4,92.6,93.6c36.2,28.3,70.8,41.8,105.8,40.9
	c65.2-1.2,136.2-51.4,217.3-153.1c76.7-96.4,142-147.4,205.3-160.4c11.7-2.4,23.2-3.5,34.4-3.7C1465,128.9,1506,144.9,1548.8,162z"
	/>
<path class="st1" d="M959.1,1c28.5,3.1,58.7,12.4,92.4,28.2c61.4,29,109.7,87.9,156.3,144.9c30.7,37.3,62.4,75.9,97.4,105.8
	c39.4,33.3,78.9,52,120.9,57.1c72.3,8.7,119-33.4,173-82.2c34.2-30.9,72.9-66,123.4-92c57.8-29.9,122.3-43.4,197-41.2v0.9
	c-74.5-2-138.8,11.3-196.4,40.9c-50.2,26-89,61-123.2,91.9c-54.3,49-101.1,91.3-173.9,82.6c-42.2-5-82-23.8-121.4-57.4
	c-35.2-29.9-66.9-68.5-97.5-105.8c-46.6-56.9-95-115.6-156-144.5c-33.5-15.8-63.7-25-92-28.1c-26.1-2.8-50.9-0.4-75.7,7.3
	c-47.2,14.6-90.5,47.6-140.7,85.5c-26.6,20.3-56.7,43.1-90.5,65.5c-55.9,37.1-125,61.3-205.3,71.8c-64.3,8.4-135.8,8.4-212.7-0.4
	C103.3,217,0.9,181.9-0.1,181.6l0.4-0.8c1,0.3,103.3,35.4,234,50.1c76.7,8.7,148.2,8.9,212.4,0.4c80.2-10.7,149.1-34.6,204.8-71.6
	c33.8-22.4,64-45.2,90.5-65.5c50.2-38.2,93.6-71,141-85.8c18.1-5.6,36.1-8.4,54.6-8.4C944.8-0.2,952,0.2,959.1,1z"/>
<path class="st2" d="M141.5,108.3c68.3,11.6,130.6,54.7,185.1,128.4c34.1,45.9,65.9,79,96.9,100.9c29.6,21,57.9,31.3,86.5,31.7
	c32.8,0.3,65.9-12.6,101.1-39.8c30.1-23.4,62.5-57.2,101.8-106.9c49.5-62.5,111.5-93,189.7-93.1c2.6,0,5.2,0,7.9,0.1
	c71.3,1.8,145.9,27.8,211.7,50.7c17.2,6.1,33.5,11.6,49.4,16.8c54.3,17.6,101.9,27.9,171.3,25c65.9-2.8,151.7-17.8,286.8-50.4
	c0.5-0.2,50.1-11.6,110.4-16.8c55.7-4.9,132.2-5.2,180.3,20.9l-0.5,0.8c-47.9-25.9-124.2-25.6-179.6-20.8
	c-60.3,5.2-109.8,16.7-110.3,16.7c-135.2,32.4-221,47.4-287,50.4c-69.6,3-117.2-7.4-171.7-25.1c-16-5.2-32.3-10.8-49.5-16.8
	C1056,158,981.5,132,910.4,130.2c-81.5-1.9-145.9,28.2-196.8,92.5c-39.4,49.8-71.7,83.7-101.9,107c-35.4,27.3-68.8,40.5-101.8,40.1
	c-28.8-0.3-57.3-10.8-87.1-31.9c-31.3-22-62.9-55.1-97.1-101.2c-54.4-73.3-116.5-116.3-184.4-127.9C61,95.2,0.9,131.5,0.3,131.9
	l-0.6-0.7c0.1-0.1,15.3-9.4,40.3-16.8c23.7-7,45.6-9.5,64.4-9.5C118.8,105,131.4,106.4,141.5,108.3z"/>
<ellipse transform="matrix(1 -1.888593e-03 1.888593e-03 1 -0.6936 0.9338)" class="st2" cx="494.1" cy="367.7" rx="18.1" ry="18"/>
<ellipse transform="matrix(1 -1.888593e-03 1.888593e-03 1 -0.8422 1.8199)" class="st0" cx="963.2" cy="446.9" rx="18.1" ry="18"/>
<ellipse transform="matrix(1 -1.888593e-03 1.888593e-03 1 -0.6376 2.7279)" class="st1" cx="1444.1" cy="339" rx="18.1" ry="18"/>
</svg>
