<?xml version="1.0" encoding="utf-8"?>
<!-- Generator: Adobe Illustrator 21.0.2, SVG Export Plug-In . SVG Version: 6.00 Build 0)  -->
<svg version="1.1" id="Layer_1" xmlns="http://www.w3.org/2000/svg" xmlns:xlink="http://www.w3.org/1999/xlink" x="0px" y="0px"
	 viewBox="0 0 45.6 45.7" style="enable-background:new 0 0 45.6 45.7;" xml:space="preserve">
<style type="text/css">
	.st0{clip-path:url(#SVGID_2_);}
	.st1{fill:#FFFFFF;}
</style>
<g>
	<g>
		<g>
			<defs>
				<path id="SVGID_1_" d="M36.4,45.7H9.3c-5.2,0-9.3-4.2-9.3-9.3V9.3C0,4.2,4.2,0,9.3,0h27c5.2,0,9.3,4.2,9.3,9.3v27
					C45.7,41.6,41.6,45.7,36.4,45.7z"/>
			</defs>
			<clipPath id="SVGID_2_">
				<use xlink:href="#SVGID_1_"  style="overflow:visible;"/>
			</clipPath>
			<g class="st0">
				<path class="st1" d="M38.9,0h-32C3.2,0,0,3,0,6.9v32c0,3.9,3.2,6.9,6.9,6.9h32c3.9,0,6.9-3.2,6.9-6.9v-32C45.9,3,42.7,0,38.9,0z
					 M36.7,11h-3.2c0,0-2.3,0-2.3,2v3.6h5.6l-0.7,6.3h-4.7v17.9h-7.6V22.9h-3.7v-6.3h3.7v-4c0,0-0.4-8,7.3-8h5.7L36.7,11L36.7,11z"
					/>
			</g>
		</g>
	</g>
</g>
</svg>
