<?xml version="1.0" encoding="utf-8"?>
<!-- Generator: Adobe Illustrator 21.0.2, SVG Export Plug-In . SVG Version: 6.00 Build 0)  -->
<svg version="1.1" id="Layer_1" xmlns="http://www.w3.org/2000/svg" xmlns:xlink="http://www.w3.org/1999/xlink" x="0px" y="0px"
	 viewBox="0 0 153 105.4" style="enable-background:new 0 0 153 105.4;" xml:space="preserve">
<style type="text/css">
	.st0{fill:#FFFFFF;}
</style>
<g>
	<path class="st0" d="M86.6,87.4H8.1c-2.8,0-5.1-2.3-5.1-5.1v-8.6h83.1c0.8,0,1.5-0.7,1.5-1.5s-0.7-1.5-1.5-1.5H3V8.1
		C3,5.3,5.3,3,8.1,3h115.6c2.8,0,5.1,2.3,5.1,5.1v26.9c0,0.8,0.7,1.5,1.5,1.5s1.5-0.7,1.5-1.5V8.1c0-4.5-3.6-8.1-8.1-8.1H8.1
		C3.6,0,0,3.6,0,8.1v74.2c0,4.5,3.6,8.1,8.1,8.1h43.8l-2.6,10.2l-4.2,1.9c-0.6,0.3-1,1-0.8,1.7c0.1,0.7,0.8,1.2,1.5,1.2h40.4
		c0.7,0,1.3-0.5,1.5-1.2c0.1-0.7-0.2-1.4-0.8-1.7l-4.2-1.9l-2.6-10.2h6.7c0.8,0,1.5-0.7,1.5-1.5S87.4,87.4,86.6,87.4z M79.8,102.1
		c0,0.1,0.1,0.2,0.1,0.3h-28c0-0.1,0.1-0.2,0.1-0.3l3-11.6h21.8L79.8,102.1z"/>
	<path class="st0" d="M119.9,100.2H97.8V45.3h39.9v7.9c0,0.8,0.7,1.5,1.5,1.5s1.5-0.7,1.5-1.5V45c0-1.5-1.2-2.8-2.8-2.8H97.6
		c-1.5,0-2.8,1.2-2.8,2.8v55.4c0,1.5,1.2,2.8,2.8,2.8h22.3c0.8,0,1.5-0.7,1.5-1.5S120.8,100.2,119.9,100.2z"/>
	<path class="st0" d="M150.7,60.2h-22.8c-1.2,0-2.2,1-2.2,2.2v38.5c0,1.2,1,2.2,2.2,2.2h22.8c1.2,0,2.2-1,2.2-2.2V62.4
		C153,61.2,151.9,60.2,150.7,60.2z M150,100.2h-21.3v-37H150V100.2z"/>
	<circle class="st0" cx="65.9" cy="80.7" r="2.5"/>
	<circle class="st0" cx="117.3" cy="92.4" r="2.5"/>
	<circle class="st0" cx="139.3" cy="92.4" r="2.5"/>
</g>
</svg>
