<?xml version="1.0" encoding="utf-8"?>
<!-- Generator: Adobe Illustrator 21.0.0, SVG Export Plug-In . SVG Version: 6.00 Build 0)  -->
<svg version="1.1" id="Layer_1" xmlns="http://www.w3.org/2000/svg" xmlns:xlink="http://www.w3.org/1999/xlink" x="0px" y="0px"
	 viewBox="0 0 141.8 118.4" style="enable-background:new 0 0 141.8 118.4;" xml:space="preserve">
<style type="text/css">
	.st0{fill:#FFFFFF;}
</style>
<g>
	<path class="st0" d="M134.3,28H34c-4.2,0-7.6,3.4-7.6,7.6v42.2c0,4.2,3.4,7.6,7.6,7.6h24.8c1,0,1.8-0.8,1.8-1.8s-0.8-1.8-1.8-1.8
		H34c-2.2,0-4-1.8-4-4V35.6c0-2.2,1.8-4,4-4h100.3c2.2,0,4,1.8,4,4v42.2c0,1,0.8,1.8,1.8,1.8s1.8-0.8,1.8-1.8V35.6
		C141.8,31.4,138.5,28.1,134.3,28z"/>
	<path class="st0" d="M17.6,30.3H1.8c-1,0-1.8,0.8-1.8,1.8s0.8,1.8,1.8,1.8h15.8c1,0,1.8-0.8,1.8-1.8l0,0
		C19.3,31.1,18.6,30.3,17.6,30.3z"/>
	<path class="st0" d="M31.9,19.4c1,0,1.8-0.8,1.8-1.8V1.8c0-1-0.8-1.8-1.8-1.8s-1.8,0.8-1.8,1.8v15.9C30.1,18.6,30.9,19.4,31.9,19.4
		z"/>
	<path class="st0" d="M126.5,63c-1-4.1-5.1-6.6-9.2-5.6c-1.6,0.4-3.1,1.3-4.1,2.6c-2.3-3.5-6.9-4.6-10.5-2.3
		c-0.8,0.5-1.5,1.2-2.1,1.9c-2.6-3.2-7.4-3.7-10.6-1.1c-0.3,0.2-0.5,0.4-0.7,0.7l-2-8.1c-1.1-4.1-5.3-6.5-9.4-5.4
		c-3.9,1.1-6.3,5-5.5,9l4.1,16.6C74,68,69.1,67.4,65.8,70c-3.3,2.6-3.9,7.4-1.2,10.7c0.2,0.2,0.3,0.4,0.5,0.6l19.3,21.9l3.4,13.7
		c0.2,0.8,0.9,1.4,1.8,1.3H90c0.9-0.2,1.5-1.2,1.3-2.1l-3.6-14.8c-2-2.3-5-5.5-5-5.5L67.8,79c-1.2-1.9-0.7-4.4,1.2-5.7
		c1.5-1,3.6-0.9,5,0.4l4.5,5c0,0,2.5,3.2,4.2,2.1L76,53.9c-0.4-2.2,1-4.4,3.3-4.8c2.1-0.4,4.1,0.8,4.7,2.8l3.5,14.3l1.4,5.9
		c0.1,0.2,0.2,0.4,0.3,0.6c0.1,0.1,0.2,0.3,0.4,0.4h0.1c0.1,0.1,0.3,0.1,0.4,0.2h0.2h0.2H91c0.9-0.2,1.5-1.2,1.3-2.1l-1.5-5.9
		c-0.4-2.2,1.1-4.4,3.3-4.8c2.1-0.4,4.1,0.9,4.7,2.9l1.9,7.6c0.1,0.2,0.2,0.4,0.3,0.6l0.1,0.4c0.1,0.1,0.2,0.2,0.3,0.3l0.2,0.1
		l0.4,0.1h0.2h0.2h0.4c0.9-0.2,1.5-1.2,1.3-2.1l-1.2-5.1c-0.5-2.2,0.8-4.4,3-5c2.2-0.5,4.4,0.8,5,3l0.9,3.4v0.1l1,4.1
		c0.2,1,1.1,1.6,2.1,1.4s1.6-1.1,1.4-2.1v-0.1l-1-4.2c-0.4-2.2,1.1-4.4,3.3-4.8c2.1-0.4,4.1,0.9,4.7,2.9l7.4,30.1
		c0.2,0.8,0.9,1.4,1.8,1.3h0.4c0.9-0.2,1.5-1.2,1.3-2.1L126.5,63z"/>
	<path class="st0" d="M26.1,23.5L14.9,12.3c-0.7-0.6-1.6-0.6-2.3,0s-0.8,1.8-0.2,2.5L23.6,26c0.7,0.7,1.8,0.7,2.5,0h0.1
		C26.8,25.3,26.8,24.2,26.1,23.5z"/>
</g>
</svg>
