<?xml version="1.0" encoding="utf-8"?>
<!-- Generator: Adobe Illustrator 21.0.0, SVG Export Plug-In . SVG Version: 6.00 Build 0)  -->
<svg version="1.1" id="Layer_1" xmlns="http://www.w3.org/2000/svg" xmlns:xlink="http://www.w3.org/1999/xlink" x="0px" y="0px"
	 viewBox="0 0 98.4 111.3" style="enable-background:new 0 0 98.4 111.3;" xml:space="preserve">
<style type="text/css">
	.st0{fill:#FFFFFF;}
</style>
<g transform="translate(0,-952.36218)">
	<path class="st0" d="M49.2,952.5c-3.5,0-6.8,1.7-9.6,4.7c-2.8,2.9-5.2,7-7.2,12.1c-0.7,1.8-1.4,3.7-2,5.7c-5-1.2-9.7-1.8-13.8-1.7
		c-7,0.1-12.6,2.2-15.2,6.8c-1.7,3-1.8,6.8-0.7,10.7s3.5,8.1,6.8,12.5c1.3,1.7,2.7,3.4,4.3,5.1c-1.6,1.7-3,3.3-4.3,5
		c-3.3,4.3-5.6,8.5-6.8,12.5c-1.1,3.9-1,7.6,0.7,10.7c2.6,4.6,8.2,6.6,15.2,6.8c4.1,0.1,8.7-0.5,13.8-1.7c0.6,2,1.3,3.9,2,5.7
		c2,5,4.4,9.1,7.2,12.1c2.8,2.9,6.1,4.7,9.6,4.7c3.2,0,6.2-1.4,8.7-3.8c2.6-2.4,4.8-5.8,6.8-10c0.4-0.6,0.2-1.3-0.5-1.7
		c-0.6-0.3-1.5-0.1-1.9,0.4c-0.1,0.1-0.1,0.2-0.1,0.3c-1.9,4-4,7.1-6.3,9.2c-2.2,2.1-4.5,3.1-6.8,3.1c-2.5,0-5.1-1.3-7.5-3.9
		c-2.5-2.6-4.8-6.4-6.8-11.2c-0.7-1.7-1.3-3.6-1.9-5.5c5.2-1.4,10.6-3.4,16.3-6c9,4.2,17.6,6.9,25,7.9c5.3,0.8,10.1,0.7,14-0.3
		s7-2.9,8.7-6c1.7-3,1.8-6.8,0.7-10.7c-1.1-3.9-3.5-8.1-6.8-12.5c-1.3-1.7-2.7-3.3-4.3-5c1.6-1.7,3-3.4,4.3-5.1
		c3.3-4.3,5.6-8.5,6.8-12.5c1.1-3.9,1-7.6-0.7-10.7c-1.7-3-4.8-5-8.7-6c-1.9-0.5-4.1-0.7-6.4-0.8c-2.3,0-4.9,0.1-7.5,0.5
		c-2,0.3-4.1,0.7-6.3,1.3c-0.6-2-1.3-3.9-2-5.7c-2-5-4.4-9.1-7.2-12.1C56,954.2,52.7,952.5,49.2,952.5z M49.2,954.9
		c2.5,0,5.1,1.3,7.5,3.9c2.5,2.6,4.8,6.4,6.8,11.2c0.7,1.7,1.3,3.6,1.9,5.5c-5.1,1.4-10.6,3.4-16.2,6c-5.6-2.6-11.1-4.7-16.2-6.1
		c0.6-1.9,1.2-3.8,1.9-5.5c2-4.8,4.3-8.7,6.8-11.2C44.1,956.2,46.7,954.9,49.2,954.9z M16.7,975.7c3.8-0.1,8.2,0.5,12.9,1.6
		c-1.5,5.3-2.5,11.3-3.1,17.7c-4.9,3.6-9.3,7.3-13,11.1c-1.4-1.6-2.8-3.2-4-4.7c-3.2-4.2-5.3-8.2-6.3-11.7s-0.8-6.4,0.4-8.7
		C5.6,977.7,10.2,975.8,16.7,975.7z M81.8,975.7c2.2,0,4.2,0.3,5.9,0.7c3.4,0.9,5.8,2.4,7.1,4.7c1.3,2.3,1.4,5.2,0.4,8.7
		s-3.1,7.5-6.3,11.6c-1.2,1.5-2.5,3.2-4,4.7c-3.7-3.8-8.1-7.5-13-11.1c-0.6-6.4-1.7-12.4-3.1-17.7c2-0.5,4-0.9,5.9-1.2
		C77.2,975.8,79.6,975.7,81.8,975.7z M32.3,978c4.4,1.2,9.1,2.9,13.9,5c-2.8,1.4-5.7,2.9-8.5,4.6c-2.9,1.7-5.6,3.5-8.2,5.3
		C30.1,987.6,31,982.5,32.3,978z M66.2,978c1.2,4.5,2.2,9.5,2.8,14.9c-2.6-1.8-5.3-3.6-8.2-5.3c-2.8-1.7-5.7-3.2-8.5-4.6
		C57.1,980.9,61.7,979.2,66.2,978z M49.2,984.4c3.4,1.6,6.8,3.4,10.2,5.4c3.5,2.1,6.8,4.3,9.9,6.5c0.3,3.8,0.5,7.7,0.5,11.7
		s-0.2,8-0.6,11.7c-3.1,2.2-6.4,4.4-9.9,6.5c-3.4,2-6.9,3.9-10.3,5.5c-3.4-1.6-6.8-3.4-10.2-5.5c-3.5-2.1-6.8-4.2-9.9-6.5
		c-0.3-3.8-0.5-7.7-0.5-11.7s0.2-8,0.5-11.7c3.1-2.2,6.4-4.4,9.9-6.5C42.4,987.8,45.8,986,49.2,984.4z M26.2,998.5
		c-0.2,3.1-0.4,6.3-0.4,9.6s0.1,6.5,0.4,9.6c-4.1-3.1-7.8-6.4-10.9-9.6C18.5,1004.9,22.1,1001.6,26.2,998.5z M72.2,998.5
		c4.1,3.1,7.8,6.4,10.9,9.6c-3.1,3.2-6.8,6.4-10.9,9.5c0.2-3.1,0.3-6.3,0.3-9.5C72.5,1004.8,72.4,1001.6,72.2,998.5z M13.5,1010
		c3.7,3.8,8.1,7.5,13,11.1c0.6,6.4,1.7,12.4,3.1,17.7c-4.8,1.1-9.2,1.7-12.9,1.6c-6.5-0.1-11-2-13-5.4c-1.3-2.3-1.4-5.2-0.4-8.7
		s3.1-7.5,6.3-11.6C10.7,1013.1,12.1,1011.6,13.5,1010z M84.9,1010c1.4,1.6,2.8,3.1,4,4.7c3.2,4.2,5.3,8.1,6.3,11.6
		c1,3.5,0.8,6.4-0.4,8.7c-1.3,2.3-3.7,3.9-7.1,4.7s-7.9,0.9-13,0.2c-1.9-0.3-3.9-0.6-5.9-1.1c1.5-5.3,2.6-11.3,3.2-17.7
		C76.8,1017.5,81.2,1013.7,84.9,1010z M69,1023.2c-0.6,5.4-1.6,10.4-2.8,14.9c-4.4-1.2-9.1-2.9-13.9-5c2.8-1.4,5.6-2.9,8.5-4.6
		C63.6,1026.8,66.4,1025,69,1023.2z M29.5,1023.2c2.6,1.8,5.3,3.6,8.2,5.3c2.8,1.7,5.7,3.2,8.5,4.6c-4.8,2.1-9.5,3.8-13.9,5
		C31,1033.6,30.1,1028.6,29.5,1023.2z"/>
</g>
</svg>
