<?xml version="1.0" encoding="utf-8"?>
<!-- Generator: Adobe Illustrator 21.0.0, SVG Export Plug-In . SVG Version: 6.00 Build 0)  -->
<svg version="1.1" id="Layer_1" xmlns="http://www.w3.org/2000/svg" xmlns:xlink="http://www.w3.org/1999/xlink" x="0px" y="0px"
	 viewBox="0 0 30.9 53.7" style="enable-background:new 0 0 30.9 53.7;" xml:space="preserve">
<style type="text/css">
	.st0{fill:#FFFFFF;}
</style>
<g>
	<path class="st0" d="M1.4,6.7c-1.5-1.5-1.5-4,0-5.5l0,0c1.5-1.5,4-1.5,5.5,0l0,0L29.7,24c1.5,1.5,1.5,4,0,5.5l0,0
		c-1.5,1.5-4,1.5-5.5,0l0,0L1.4,6.7L1.4,6.7z"/>
</g>
<g>
	<path class="st0" d="M6.7,52.5c-1.5,1.5-4,1.5-5.5,0l0,0c-1.5-1.5-1.5-4,0-5.5l0,0l23-23c1.5-1.5,4-1.5,5.5,0l0,0
		c1.5,1.5,1.5,4,0,5.5l0,0L6.7,52.5L6.7,52.5z"/>
</g>
</svg>
