<?xml version="1.0" encoding="utf-8"?>
<!-- Generator: Adobe Illustrator 21.0.2, SVG Export Plug-In . SVG Version: 6.00 Build 0)  -->
<svg version="1.1" id="Layer_1" xmlns="http://www.w3.org/2000/svg" xmlns:xlink="http://www.w3.org/1999/xlink" x="0px" y="0px"
	 viewBox="0 0 45.6 45.7" style="enable-background:new 0 0 45.6 45.7;" xml:space="preserve">
<style type="text/css">
	.st0{fill:#FFFFFF;}
</style>
<g>
	<g>
		<path class="st0" d="M30.1,9H15.4C11.8,9,9,11.9,9,15.4v14.7c0,3.6,2.9,6.4,6.4,6.4h14.7c3.6,0,6.4-2.9,6.4-6.4V15.4
			C36.5,11.9,33.6,9,30.1,9z M22.8,32.6c-5.4,0-9.7-4.4-9.7-9.7s4.4-9.7,9.7-9.7c5.4,0,9.7,4.4,9.7,9.7S28.1,32.6,22.8,32.6z
			 M32.1,15.6c-1.1,0-2.1-1-2.1-2.1s1-2.1,2.1-2.1c1.1,0,2.1,1,2.1,2.1S33.2,15.6,32.1,15.6z"/>
		<path class="st0" d="M36.2,0H9.4C4.3,0,0,4.3,0,9.4v26.9c0,5.1,4.3,9.4,9.4,9.4h26.8c5.1,0,9.4-4.3,9.4-9.4V9.4
			C45.5,4.3,41.3,0,36.2,0z M40,30.2c0,5.6-4.4,10-10,10H15.4c-5.6,0-10-4.4-10-10V15.4c0-5.6,4.4-10,10-10h14.7c5.6,0,10,4.4,10,10
			V30.2z"/>
		<ellipse class="st0" cx="22.8" cy="22.9" rx="5.4" ry="5.4"/>
	</g>
</g>
</svg>
