<?xml version="1.0" encoding="utf-8"?>
<!-- Generator: Adobe Illustrator 21.0.0, SVG Export Plug-In . SVG Version: 6.00 Build 0)  -->
<svg version="1.1" id="Layer_1" xmlns="http://www.w3.org/2000/svg" xmlns:xlink="http://www.w3.org/1999/xlink" x="0px" y="0px"
	 viewBox="0 0 131.5 90.3" style="enable-background:new 0 0 131.5 90.3;" xml:space="preserve">
<style type="text/css">
	.st0{fill:#2D2F33;}
</style>
<g>
	<path class="st0" d="M122.9,90.3H8.6c-4.7,0-8.6-3.9-8.6-8.6V8.6C0,3.9,3.9,0,8.6,0h114.3c4.7,0,8.6,3.9,8.6,8.6v73.1
		C131.5,86.5,127.7,90.3,122.9,90.3z M8.6,3C5.5,3,3,5.5,3,8.6v73.1c0,3.1,2.5,5.6,5.6,5.6h114.3c3.1,0,5.6-2.5,5.6-5.6V8.6
		c0-3.1-2.5-5.6-5.6-5.6C122.9,3,8.6,3,8.6,3z"/>
	<path class="st0" d="M109.3,20.2H63.4c-0.8,0-1.5-0.7-1.5-1.5s0.7-1.5,1.5-1.5h45.9c0.8,0,1.5,0.7,1.5,1.5S110.2,20.2,109.3,20.2z"
		/>
	<path class="st0" d="M109.3,37.8H63.4c-0.8,0-1.5-0.7-1.5-1.5s0.7-1.5,1.5-1.5h45.9c0.8,0,1.5,0.7,1.5,1.5S110.2,37.8,109.3,37.8z"
		/>
	<path class="st0" d="M109.3,55.5H63.4c-0.8,0-1.5-0.7-1.5-1.5s0.7-1.5,1.5-1.5h45.9c0.8,0,1.5,0.7,1.5,1.5S110.2,55.5,109.3,55.5z"
		/>
	<path class="st0" d="M109.3,73.1H21.6c-0.8,0-1.5-0.7-1.5-1.5s0.7-1.5,1.5-1.5h87.7c0.8,0,1.5,0.7,1.5,1.5S110.2,73.1,109.3,73.1z"
		/>
	<path class="st0" d="M48.7,57.5h-23c-3.9,0-7-3.2-7-7V22.2c0-3.9,3.2-7,7-7h23c3.9,0,7,3.2,7,7v28.2C55.7,54.3,52.6,57.5,48.7,57.5
		z M25.7,18.2c-2.2,0-4,1.8-4,4v28.2c0,2.2,1.8,4,4,4h23c2.2,0,4-1.8,4-4V22.2c0-2.2-1.8-4-4-4H25.7z"/>
</g>
</svg>
