<?xml version="1.0" encoding="utf-8"?>
<!-- Generator: Adobe Illustrator 21.0.0, SVG Export Plug-In . SVG Version: 6.00 Build 0)  -->
<svg version="1.1" id="Layer_1" xmlns="http://www.w3.org/2000/svg" xmlns:xlink="http://www.w3.org/1999/xlink" x="0px" y="0px"
	 viewBox="0 0 131.5 90.3" style="enable-background:new 0 0 131.5 90.3;" xml:space="preserve">
<style type="text/css">
	.st0{fill:#2D2F33;}
</style>
<g>
	<g>
		<path class="st0" d="M122.9,90.3H8.6c-4.7,0-8.6-3.9-8.6-8.6V8.6C0,3.9,3.9,0,8.6,0h114.3c4.7,0,8.6,3.9,8.6,8.6v73.1
			C131.5,86.5,127.7,90.3,122.9,90.3z M8.6,3C5.5,3,3,5.5,3,8.6v73.1c0,3.1,2.5,5.6,5.6,5.6h114.3c3.1,0,5.6-2.5,5.6-5.6V8.6
			c0-3.1-2.5-5.6-5.6-5.6C122.9,3,8.6,3,8.6,3z"/>
	</g>
	<path class="st0" d="M65.8,64.8c-2.1,0-3.7-1.7-3.7-3.7v-0.7c-2.6-1-4.7-3-5.8-5.6c0,0-0.1-0.1-0.1-0.2c-0.7-1.9,0.2-4.1,2.2-4.8
		c1.9-0.7,4.1,0.2,4.8,2.1c0.4,1.1,1.5,1.8,2.7,1.8l0,0c0.3,0,2.9-0.1,2.9-2.4c0-1-1.2-1.9-3.6-2.4H65c-8.2-1.9-9.4-6.9-9.4-9.7
		c0-4.2,2.7-7.9,6.6-9.2v-0.6c0-2.1,1.7-3.7,3.7-3.7c2.1,0,3.7,1.7,3.7,3.7V30c2.6,1,4.8,3.1,5.8,5.7c0.7,1.9-0.1,3.9-1.9,4.8
		c-1.9,0.9-4.1,0-4.9-1.9c-0.5-1.1-1.5-1.8-2.7-1.8l0,0c-0.3,0-2.9,0.1-2.9,2.4c0,1,1.2,1.9,3.6,2.4h0.2c8.2,2,9.4,6.9,9.4,9.7
		c0,4.2-2.7,7.9-6.6,9.2v0.6C69.5,63.1,67.8,64.8,65.8,64.8z M59.6,51.5c-0.2,0-0.4,0-0.6,0.1c-0.9,0.3-1.3,1.3-1,2.2l0.1,0.1
		c1,2.3,2.9,4,5.3,4.7l0.7,0.2V61c0,1,0.8,1.7,1.7,1.7c1,0,1.7-0.8,1.7-1.7v-2.1l0.8-0.2c3.5-0.8,5.9-3.9,5.9-7.5
		c0-2.7-1.4-6.2-7.8-7.7h-0.2c-3.6-0.8-5.3-2.2-5.3-4.4c0-3,2.5-4.4,4.9-4.4l0,0c2,0,3.8,1.2,4.5,3c0.4,0.8,1.4,1.2,2.3,0.8
		c0.8-0.4,1.2-1.3,0.9-2.2c-1-2.3-2.9-4-5.3-4.8l-0.7-0.2v-2.2c0-1-0.8-1.7-1.7-1.7c-1,0-1.7,0.8-1.7,1.7v2.2l-0.8,0.2
		c-3.5,0.8-5.9,3.9-5.9,7.5c0,2.7,1.4,6.2,7.8,7.8h0.2c3.6,0.8,5.3,2.2,5.3,4.4c0,3-2.5,4.4-4.9,4.4l0,0c-2,0-3.8-1.2-4.5-3
		C61,51.9,60.3,51.5,59.6,51.5z"/>
	<path class="st0" d="M65.8,74C49.9,74,37,61.1,37,45.2s12.9-28.8,28.8-28.8s28.8,12.9,28.8,28.8C94.6,61.1,81.7,74,65.8,74z
		 M65.8,18.3C51,18.3,39,30.3,39,45.1S51,72,65.8,72s26.8-12,26.8-26.8S80.6,18.3,65.8,18.3z"/>
</g>
</svg>
