<?xml version="1.0" encoding="utf-8"?>
<!-- Generator: Adobe Illustrator 21.0.0, SVG Export Plug-In . SVG Version: 6.00 Build 0)  -->
<svg version="1.1" id="Layer_1" xmlns="http://www.w3.org/2000/svg" xmlns:xlink="http://www.w3.org/1999/xlink" x="0px" y="0px"
	 viewBox="0 0 131.5 90.3" style="enable-background:new 0 0 131.5 90.3;" xml:space="preserve">
<style type="text/css">
	.st0{fill:#2D2F33;}
</style>
<g>
	<path class="st0" d="M33.2,44.5c-3.9,0-7.1-3.2-7.1-7.1s3.2-7.1,7.1-7.1s7.1,3.2,7.1,7.1C40.2,41.3,37.1,44.5,33.2,44.5z
		 M33.2,32.3c-2.8,0-5.1,2.3-5.1,5.1s2.3,5.1,5.1,5.1s5.1-2.3,5.1-5.1S36,32.3,33.2,32.3z"/>
	<path class="st0" d="M45.9,61.8H20.4c-0.6,0-1-0.4-1-1c0-4.8,1.4-8.5,4.1-11.1c3.9-3.8,9.2-3.7,9.7-3.7s5.8,0,9.7,3.7
		C45.6,52.3,47,56,47,60.8C46.9,61.4,46.5,61.8,45.9,61.8z M21.4,59.8h23.4c-0.2-3.7-1.3-6.7-3.4-8.7C38,47.9,33.2,48,33.2,48
		s0,0-0.1,0s-4.9-0.1-8.3,3.2C22.8,53.2,21.6,56.1,21.4,59.8z"/>
	<path class="st0" d="M122.9,90.3H8.6c-4.7,0-8.6-3.9-8.6-8.6V8.6C0,3.9,3.9,0,8.6,0h114.3c4.7,0,8.6,3.9,8.6,8.6v73.1
		C131.5,86.5,127.7,90.3,122.9,90.3z M8.6,3C5.5,3,3,5.5,3,8.6v73.1c0,3.1,2.5,5.6,5.6,5.6h114.3c3.1,0,5.6-2.5,5.6-5.6V8.6
		c0-3.1-2.5-5.6-5.6-5.6C122.9,3,8.6,3,8.6,3z"/>
	<path class="st0" d="M109.9,30h-46c-0.8,0-1.5-0.7-1.5-1.5s0.7-1.5,1.5-1.5h45.9c0.8,0,1.5,0.7,1.5,1.5S110.7,30,109.9,30z"/>
	<path class="st0" d="M109.9,46.7h-46c-0.8,0-1.5-0.7-1.5-1.5s0.7-1.5,1.5-1.5h45.9c0.8,0,1.5,0.7,1.5,1.5S110.7,46.7,109.9,46.7z"
		/>
	<path class="st0" d="M109.9,63.3h-46c-0.8,0-1.5-0.7-1.5-1.5s0.7-1.5,1.5-1.5h45.9c0.8,0,1.5,0.7,1.5,1.5S110.7,63.3,109.9,63.3z"
		/>
</g>
</svg>
